<svg xmlns="http://www.w3.org/2000/svg" xmlns:xlink="http://www.w3.org/1999/xlink" id="Layer_2" viewBox="0 0 3986 3118.64"><defs><style>.cls-1{fill:url(#_Áåçûìÿííûé_ãðàäèåíò_349-14);}.cls-2{fill:url(#_Áåçûìÿííûé_ãðàäèåíò_17-2);}.cls-3{fill:url(#_Áåçûìÿííûé_ãðàäèåíò_357-5);}.cls-4{fill:url(#_Áåçûìÿííûé_ãðàäèåíò_339-3);}.cls-4,.cls-5,.cls-6,.cls-7,.cls-8,.cls-9{opacity:.4;}.cls-10,.cls-5{fill:#fff;}.cls-11{fill:url(#_Áåçûìÿííûé_ãðàäèåíò_349-21);}.cls-12{fill:url(#_Áåçûìÿííûé_ãðàäèåíò_357-11);}.cls-13{fill:url(#_Áåçûìÿííûé_ãðàäèåíò_2-5);}.cls-14{fill:url(#_Áåçûìÿííûé_ãðàäèåíò_349-18);}.cls-15{fill:url(#_Áåçûìÿííûé_ãðàäèåíò_339-7);}.cls-16{fill:url(#_Áåçûìÿííûé_ãðàäèåíò_339-8);}.cls-17{fill:url(#_Áåçûìÿííûé_ãðàäèåíò_349-8);}.cls-18{fill:url(#_Áåçûìÿííûé_ãðàäèåíò_339-5);}.cls-19{fill:url(#_Áåçûìÿííûé_ãðàäèåíò_357-12);}.cls-20{fill:url(#_Áåçûìÿííûé_ãðàäèåíò_349-30);}.cls-21{fill:url(#_Áåçûìÿííûé_ãðàäèåíò_349-3);}.cls-22{fill:url(#_Áåçûìÿííûé_ãðàäèåíò_339-6);}.cls-23{fill:url(#_Áåçûìÿííûé_ãðàäèåíò_21);}.cls-24{fill:url(#_Áåçûìÿííûé_ãðàäèåíò_2-4);}.cls-25{fill:url(#_Áåçûìÿííûé_ãðàäèåíò_349-16);}.cls-26{fill:url(#_Áåçûìÿííûé_ãðàäèåíò_17-8);}.cls-6{fill:url(#_Áåçûìÿííûé_ãðàäèåíò_339-10);}.cls-7{fill:url(#_Áåçûìÿííûé_ãðàäèåíò_339);}.cls-27{fill:#76d3f4;}.cls-8{fill:url(#_Áåçûìÿííûé_ãðàäèåíò_339-2);}.cls-28{fill:url(#_Áåçûìÿííûé_ãðàäèåíò_21-7);}.cls-29{fill:url(#_Áåçûìÿííûé_ãðàäèåíò_349-15);}.cls-30{fill:url(#_Áåçûìÿííûé_ãðàäèåíò_349-35);}.cls-31{fill:url(#_Áåçûìÿííûé_ãðàäèåíò_17-7);}.cls-32{fill:url(#_Áåçûìÿííûé_ãðàäèåíò_349-26);}.cls-33{fill:url(#_Áåçûìÿííûé_ãðàäèåíò_384-7);}.cls-34{fill:url(#_Áåçûìÿííûé_ãðàäèåíò_349-29);}.cls-35{fill:url(#_Áåçûìÿííûé_ãðàäèåíò_379-3);}.cls-36{fill:url(#_Áåçûìÿííûé_ãðàäèåíò_379-9);}.cls-37{fill:url(#_Áåçûìÿííûé_ãðàäèåíò_349-9);}.cls-38{fill:url(#_Áåçûìÿííûé_ãðàäèåíò_379-6);}.cls-39{fill:url(#_Áåçûìÿííûé_ãðàäèåíò_71);}.cls-40{fill:#f4caab;}.cls-41{fill:url(#_Áåçûìÿííûé_ãðàäèåíò_2-2);}.cls-42{fill:url(#_Áåçûìÿííûé_ãðàäèåíò_357);}.cls-43{fill:url(#_Áåçûìÿííûé_ãðàäèåíò_349-28);}.cls-44{fill:url(#_Áåçûìÿííûé_ãðàäèåíò_384-3);}.cls-45{fill:url(#_Áåçûìÿííûé_ãðàäèåíò_40);}.cls-46{fill:url(#_Áåçûìÿííûé_ãðàäèåíò_21-5);}.cls-47{fill:url(#_Áåçûìÿííûé_ãðàäèåíò_349-19);}.cls-48{fill:url(#_Áåçûìÿííûé_ãðàäèåíò_379);}.cls-49{fill:url(#_Áåçûìÿííûé_ãðàäèåíò_349-25);}.cls-50{fill:url(#_Áåçûìÿííûé_ãðàäèåíò_357-3);}.cls-51{fill:url(#_Áåçûìÿííûé_ãðàäèåíò_357-2);}.cls-52{fill:url(#_Áåçûìÿííûé_ãðàäèåíò_357-4);}.cls-53{fill:url(#_Áåçûìÿííûé_ãðàäèåíò_349-12);}.cls-54{fill:url(#_Áåçûìÿííûé_ãðàäèåíò_379-2);}.cls-55{fill:url(#_Áåçûìÿííûé_ãðàäèåíò_349-34);}.cls-56{fill:url(#_Áåçûìÿííûé_ãðàäèåíò_21-8);}.cls-57{fill:url(#_Áåçûìÿííûé_ãðàäèåíò_40-2);}.cls-58{fill:url(#_Áåçûìÿííûé_ãðàäèåíò_379-8);}.cls-59{fill:url(#_Áåçûìÿííûé_ãðàäèåíò_17-4);}.cls-60{fill:url(#_Áåçûìÿííûé_ãðàäèåíò_357-7);}.cls-61{fill:url(#_Áåçûìÿííûé_ãðàäèåíò_21-2);}.cls-62{fill:url(#_Áåçûìÿííûé_ãðàäèåíò_17-5);}.cls-63{fill:url(#_Áåçûìÿííûé_ãðàäèåíò_357-6);}.cls-64{fill:url(#_Áåçûìÿííûé_ãðàäèåíò_52);}.cls-65{fill:url(#_Áåçûìÿííûé_ãðàäèåíò_384-6);}.cls-66{fill:url(#_Áåçûìÿííûé_ãðàäèåíò_349-7);}.cls-67{fill:url(#_Áåçûìÿííûé_ãðàäèåíò_17-3);}.cls-68{fill:url(#_Áåçûìÿííûé_ãðàäèåíò_349-10);}.cls-69{fill:url(#_Áåçûìÿííûé_ãðàäèåíò_21-4);}.cls-70{fill:url(#_Áåçûìÿííûé_ãðàäèåíò_38);}.cls-71{fill:url(#_Áåçûìÿííûé_ãðàäèåíò_349-5);}.cls-72{fill:url(#_Áåçûìÿííûé_ãðàäèåíò_349-24);}.cls-73{fill:url(#_Áåçûìÿííûé_ãðàäèåíò_349-22);}.cls-74{fill:url(#_Áåçûìÿííûé_ãðàäèåíò_17-9);}.cls-75{fill:url(#_Áåçûìÿííûé_ãðàäèåíò_384-4);}.cls-76{fill:url(#_Áåçûìÿííûé_ãðàäèåíò_349-6);}.cls-77{fill:url(#_Áåçûìÿííûé_ãðàäèåíò_349-23);}.cls-78{fill:url(#_Áåçûìÿííûé_ãðàäèåíò_357-8);}.cls-79{fill:url(#_Áåçûìÿííûé_ãðàäèåíò_2);}.cls-80{fill:url(#_Áåçûìÿííûé_ãðàäèåíò_2-3);}.cls-81{fill:url(#_Áåçûìÿííûé_ãðàäèåíò_357-9);}.cls-82{fill:url(#_Áåçûìÿííûé_ãðàäèåíò_349-27);}.cls-83{fill:url(#_Áåçûìÿííûé_ãðàäèåíò_349-2);}.cls-84{fill:url(#_Áåçûìÿííûé_ãðàäèåíò_349-20);}.cls-85{fill:url(#_Áåçûìÿííûé_ãðàäèåíò_349);}.cls-86{fill:url(#_Áåçûìÿííûé_ãðàäèåíò_41);}.cls-87{fill:url(#_Áåçûìÿííûé_ãðàäèåíò_349-33);}.cls-88{fill:url(#_Áåçûìÿííûé_ãðàäèåíò_384);}.cls-89{fill:url(#_Áåçûìÿííûé_ãðàäèåíò_349-11);}.cls-90{fill:url(#_Áåçûìÿííûé_ãðàäèåíò_357-10);}.cls-91{fill:url(#_Áåçûìÿííûé_ãðàäèåíò_21-3);}.cls-92{fill:url(#_Áåçûìÿííûé_ãðàäèåíò_57);}.cls-93{fill:#03053e;}.cls-94{fill:url(#_Áåçûìÿííûé_ãðàäèåíò_21-6);}.cls-9{fill:url(#_Áåçûìÿííûé_ãðàäèåíò_339-4);}.cls-95{fill:url(#_Áåçûìÿííûé_ãðàäèåíò_384-5);}.cls-96{fill:url(#_Áåçûìÿííûé_ãðàäèåíò_349-13);}.cls-97{fill:url(#_Áåçûìÿííûé_ãðàäèåíò_379-5);}.cls-98{fill:url(#_Áåçûìÿííûé_ãðàäèåíò_339-9);}.cls-99{fill:url(#_Áåçûìÿííûé_ãðàäèåíò_349-31);}.cls-100{fill:url(#_Áåçûìÿííûé_ãðàäèåíò_349-4);}.cls-101{fill:#dbc6af;}.cls-102{fill:url(#_Áåçûìÿííûé_ãðàäèåíò_384-2);}.cls-103{fill:url(#_Áåçûìÿííûé_ãðàäèåíò_17);}.cls-104{fill:url(#_Áåçûìÿííûé_ãðàäèåíò_379-4);}.cls-105{fill:url(#_Áåçûìÿííûé_ãðàäèåíò_379-7);}.cls-106{fill:url(#_Áåçûìÿííûé_ãðàäèåíò_52-2);}.cls-107{fill:url(#_Áåçûìÿííûé_ãðàäèåíò_349-17);}.cls-108{fill:url(#_Áåçûìÿííûé_ãðàäèåíò_17-6);}.cls-109{fill:url(#_Áåçûìÿííûé_ãðàäèåíò_349-32);}.cls-110{fill:#efbc90;}</style><linearGradient id="_&#xC1;&#xE5;&#xE7;&#xFB;&#xEC;&#xFF;&#xED;&#xED;&#xFB;&#xE9;_&#xE3;&#xF0;&#xE0;&#xE4;&#xE8;&#xE5;&#xED;&#xF2;_339" x1="0" y1="1579" x2="3986" y2="1579" gradientUnits="userSpaceOnUse"><stop offset="0" stop-color="#ffe2e4"></stop><stop offset="1" stop-color="#a4b8ea"></stop></linearGradient><linearGradient id="_&#xC1;&#xE5;&#xE7;&#xFB;&#xEC;&#xFF;&#xED;&#xED;&#xFB;&#xE9;_&#xE3;&#xF0;&#xE0;&#xE4;&#xE8;&#xE5;&#xED;&#xF2;_339-2" x1="1054.42" y1="48.89" x2="2275.67" y2="1690.41" gradientTransform="translate(-91.9 149.74) rotate(-4.8)" xlink:href="#_&#xC1;&#xE5;&#xE7;&#xFB;&#xEC;&#xFF;&#xED;&#xED;&#xFB;&#xE9;_&#xE3;&#xF0;&#xE0;&#xE4;&#xE8;&#xE5;&#xED;&#xF2;_339"></linearGradient><linearGradient id="_&#xC1;&#xE5;&#xE7;&#xFB;&#xEC;&#xFF;&#xED;&#xED;&#xFB;&#xE9;_&#xE3;&#xF0;&#xE0;&#xE4;&#xE8;&#xE5;&#xED;&#xF2;_339-3" x1="1685.13" y1="-26.83" x2="2441.03" y2="1078.53" xlink:href="#_&#xC1;&#xE5;&#xE7;&#xFB;&#xEC;&#xFF;&#xED;&#xED;&#xFB;&#xE9;_&#xE3;&#xF0;&#xE0;&#xE4;&#xE8;&#xE5;&#xED;&#xF2;_339"></linearGradient><linearGradient id="_&#xC1;&#xE5;&#xE7;&#xFB;&#xEC;&#xFF;&#xED;&#xED;&#xFB;&#xE9;_&#xE3;&#xF0;&#xE0;&#xE4;&#xE8;&#xE5;&#xED;&#xF2;_339-4" x1="1667.76" y1="-186.17" x2="3136.1" y2="1361.81" xlink:href="#_&#xC1;&#xE5;&#xE7;&#xFB;&#xEC;&#xFF;&#xED;&#xED;&#xFB;&#xE9;_&#xE3;&#xF0;&#xE0;&#xE4;&#xE8;&#xE5;&#xED;&#xF2;_339"></linearGradient><linearGradient id="_&#xC1;&#xE5;&#xE7;&#xFB;&#xEC;&#xFF;&#xED;&#xED;&#xFB;&#xE9;_&#xE3;&#xF0;&#xE0;&#xE4;&#xE8;&#xE5;&#xED;&#xF2;_339-5" x1="2451.66" y1="1650.82" x2="-68.43" y2="1092.26" xlink:href="#_&#xC1;&#xE5;&#xE7;&#xFB;&#xEC;&#xFF;&#xED;&#xED;&#xFB;&#xE9;_&#xE3;&#xF0;&#xE0;&#xE4;&#xE8;&#xE5;&#xED;&#xF2;_339"></linearGradient><linearGradient id="_&#xC1;&#xE5;&#xE7;&#xFB;&#xEC;&#xFF;&#xED;&#xED;&#xFB;&#xE9;_&#xE3;&#xF0;&#xE0;&#xE4;&#xE8;&#xE5;&#xED;&#xF2;_339-6" x1="1611.27" y1="2000.85" x2="3898.28" y2="962.9" xlink:href="#_&#xC1;&#xE5;&#xE7;&#xFB;&#xEC;&#xFF;&#xED;&#xED;&#xFB;&#xE9;_&#xE3;&#xF0;&#xE0;&#xE4;&#xE8;&#xE5;&#xED;&#xF2;_339"></linearGradient><linearGradient id="_&#xC1;&#xE5;&#xE7;&#xFB;&#xEC;&#xFF;&#xED;&#xED;&#xFB;&#xE9;_&#xE3;&#xF0;&#xE0;&#xE4;&#xE8;&#xE5;&#xED;&#xF2;_339-7" x1="2474.24" y1="1787.75" x2="4090.45" y2="1995.55" xlink:href="#_&#xC1;&#xE5;&#xE7;&#xFB;&#xEC;&#xFF;&#xED;&#xED;&#xFB;&#xE9;_&#xE3;&#xF0;&#xE0;&#xE4;&#xE8;&#xE5;&#xED;&#xF2;_339"></linearGradient><linearGradient id="_&#xC1;&#xE5;&#xE7;&#xFB;&#xEC;&#xFF;&#xED;&#xED;&#xFB;&#xE9;_&#xE3;&#xF0;&#xE0;&#xE4;&#xE8;&#xE5;&#xED;&#xF2;_339-8" x1="392.77" y1="644.73" x2="947.63" y2="1933.6" gradientTransform="translate(-345.5 298.36) rotate(-11.93)" xlink:href="#_&#xC1;&#xE5;&#xE7;&#xFB;&#xEC;&#xFF;&#xED;&#xED;&#xFB;&#xE9;_&#xE3;&#xF0;&#xE0;&#xE4;&#xE8;&#xE5;&#xED;&#xF2;_339"></linearGradient><linearGradient id="_&#xC1;&#xE5;&#xE7;&#xFB;&#xEC;&#xFF;&#xED;&#xED;&#xFB;&#xE9;_&#xE3;&#xF0;&#xE0;&#xE4;&#xE8;&#xE5;&#xED;&#xF2;_339-9" x1="550.97" y1="1703.01" x2="1139.2" y2="1788.45" gradientTransform="translate(-314.84 239.96) rotate(-11.31)" xlink:href="#_&#xC1;&#xE5;&#xE7;&#xFB;&#xEC;&#xFF;&#xED;&#xED;&#xFB;&#xE9;_&#xE3;&#xF0;&#xE0;&#xE4;&#xE8;&#xE5;&#xED;&#xF2;_339"></linearGradient><linearGradient id="_&#xC1;&#xE5;&#xE7;&#xFB;&#xEC;&#xFF;&#xED;&#xED;&#xFB;&#xE9;_&#xE3;&#xF0;&#xE0;&#xE4;&#xE8;&#xE5;&#xED;&#xF2;_40" x1="9260.8" y1="1231.43" x2="9563.58" y2="1231.43" gradientTransform="translate(-5606.37)" gradientUnits="userSpaceOnUse"><stop offset="0" stop-color="#a4b8ea"></stop><stop offset="1" stop-color="#8094da"></stop></linearGradient><linearGradient id="_&#xC1;&#xE5;&#xE7;&#xFB;&#xEC;&#xFF;&#xED;&#xED;&#xFB;&#xE9;_&#xE3;&#xF0;&#xE0;&#xE4;&#xE8;&#xE5;&#xED;&#xF2;_349" x1="9273.32" y1="1231.43" x2="9563.58" y2="1231.43" gradientTransform="translate(-5606.37)" gradientUnits="userSpaceOnUse"><stop offset="0" stop-color="#7a8fd8"></stop><stop offset="1" stop-color="#435ac2"></stop></linearGradient><linearGradient id="_&#xC1;&#xE5;&#xE7;&#xFB;&#xEC;&#xFF;&#xED;&#xED;&#xFB;&#xE9;_&#xE3;&#xF0;&#xE0;&#xE4;&#xE8;&#xE5;&#xED;&#xF2;_2" x1="-428.97" y1="5594.94" x2="-715.22" y2="5594.94" gradientTransform="translate(-619 5316.82) rotate(-137.05)" gradientUnits="userSpaceOnUse"><stop offset="0" stop-color="#a4b8ea"></stop><stop offset="1" stop-color="#7a8fd8"></stop></linearGradient><linearGradient id="_&#xC1;&#xE5;&#xE7;&#xFB;&#xEC;&#xFF;&#xED;&#xED;&#xFB;&#xE9;_&#xE3;&#xF0;&#xE0;&#xE4;&#xE8;&#xE5;&#xED;&#xF2;_2-2" x1="-428.69" y1="5771.87" x2="-892.63" y2="5771.87" xlink:href="#_&#xC1;&#xE5;&#xE7;&#xFB;&#xEC;&#xFF;&#xED;&#xED;&#xFB;&#xE9;_&#xE3;&#xF0;&#xE0;&#xE4;&#xE8;&#xE5;&#xED;&#xF2;_2"></linearGradient><linearGradient id="_&#xC1;&#xE5;&#xE7;&#xFB;&#xEC;&#xFF;&#xED;&#xED;&#xFB;&#xE9;_&#xE3;&#xF0;&#xE0;&#xE4;&#xE8;&#xE5;&#xED;&#xF2;_21" x1="4004.05" y1="731.79" x2="4179.54" y2="731.79" gradientTransform="translate(-377.24 -2729.18) rotate(45)" gradientUnits="userSpaceOnUse"><stop offset="0" stop-color="#fff"></stop><stop offset="1" stop-color="#e7ecf9"></stop></linearGradient><linearGradient id="_&#xC1;&#xE5;&#xE7;&#xFB;&#xEC;&#xFF;&#xED;&#xED;&#xFB;&#xE9;_&#xE3;&#xF0;&#xE0;&#xE4;&#xE8;&#xE5;&#xED;&#xF2;_21-2" x1="3908.25" y1="801.6" x2="4042.06" y2="801.6" xlink:href="#_&#xC1;&#xE5;&#xE7;&#xFB;&#xEC;&#xFF;&#xED;&#xED;&#xFB;&#xE9;_&#xE3;&#xF0;&#xE0;&#xE4;&#xE8;&#xE5;&#xED;&#xF2;_21"></linearGradient><linearGradient id="_&#xC1;&#xE5;&#xE7;&#xFB;&#xEC;&#xFF;&#xED;&#xED;&#xFB;&#xE9;_&#xE3;&#xF0;&#xE0;&#xE4;&#xE8;&#xE5;&#xED;&#xF2;_21-3" x1="3843.87" y1="801.6" x2="3924.61" y2="801.6" xlink:href="#_&#xC1;&#xE5;&#xE7;&#xFB;&#xEC;&#xFF;&#xED;&#xED;&#xFB;&#xE9;_&#xE3;&#xF0;&#xE0;&#xE4;&#xE8;&#xE5;&#xED;&#xF2;_21"></linearGradient><linearGradient id="_&#xC1;&#xE5;&#xE7;&#xFB;&#xEC;&#xFF;&#xED;&#xED;&#xFB;&#xE9;_&#xE3;&#xF0;&#xE0;&#xE4;&#xE8;&#xE5;&#xED;&#xF2;_21-4" x1="4261.99" y1="809.6" x2="4342.73" y2="809.6" xlink:href="#_&#xC1;&#xE5;&#xE7;&#xFB;&#xEC;&#xFF;&#xED;&#xED;&#xFB;&#xE9;_&#xE3;&#xF0;&#xE0;&#xE4;&#xE8;&#xE5;&#xED;&#xF2;_21"></linearGradient><linearGradient id="_&#xC1;&#xE5;&#xE7;&#xFB;&#xEC;&#xFF;&#xED;&#xED;&#xFB;&#xE9;_&#xE3;&#xF0;&#xE0;&#xE4;&#xE8;&#xE5;&#xED;&#xF2;_21-5" x1="4257.81" y1="708.2" x2="4299.36" y2="708.2" xlink:href="#_&#xC1;&#xE5;&#xE7;&#xFB;&#xEC;&#xFF;&#xED;&#xED;&#xFB;&#xE9;_&#xE3;&#xF0;&#xE0;&#xE4;&#xE8;&#xE5;&#xED;&#xF2;_21"></linearGradient><linearGradient id="_&#xC1;&#xE5;&#xE7;&#xFB;&#xEC;&#xFF;&#xED;&#xED;&#xFB;&#xE9;_&#xE3;&#xF0;&#xE0;&#xE4;&#xE8;&#xE5;&#xED;&#xF2;_21-6" x1="3962.23" y1="687.43" x2="3992.93" y2="687.43" xlink:href="#_&#xC1;&#xE5;&#xE7;&#xFB;&#xEC;&#xFF;&#xED;&#xED;&#xFB;&#xE9;_&#xE3;&#xF0;&#xE0;&#xE4;&#xE8;&#xE5;&#xED;&#xF2;_21"></linearGradient><linearGradient id="_&#xC1;&#xE5;&#xE7;&#xFB;&#xEC;&#xFF;&#xED;&#xED;&#xFB;&#xE9;_&#xE3;&#xF0;&#xE0;&#xE4;&#xE8;&#xE5;&#xED;&#xF2;_21-7" x1="4128.7" y1="809.6" x2="4278.51" y2="809.6" xlink:href="#_&#xC1;&#xE5;&#xE7;&#xFB;&#xEC;&#xFF;&#xED;&#xED;&#xFB;&#xE9;_&#xE3;&#xF0;&#xE0;&#xE4;&#xE8;&#xE5;&#xED;&#xF2;_21"></linearGradient><linearGradient id="_&#xC1;&#xE5;&#xE7;&#xFB;&#xEC;&#xFF;&#xED;&#xED;&#xFB;&#xE9;_&#xE3;&#xF0;&#xE0;&#xE4;&#xE8;&#xE5;&#xED;&#xF2;_21-8" x1="3992.05" y1="846.19" x2="4183.34" y2="846.19" xlink:href="#_&#xC1;&#xE5;&#xE7;&#xFB;&#xEC;&#xFF;&#xED;&#xED;&#xFB;&#xE9;_&#xE3;&#xF0;&#xE0;&#xE4;&#xE8;&#xE5;&#xED;&#xF2;_21"></linearGradient><linearGradient id="_&#xC1;&#xE5;&#xE7;&#xFB;&#xEC;&#xFF;&#xED;&#xED;&#xFB;&#xE9;_&#xE3;&#xF0;&#xE0;&#xE4;&#xE8;&#xE5;&#xED;&#xF2;_349-2" x1="3877.01" y1="494.56" x2="3972.22" y2="494.56" gradientTransform="translate(-377.24 -2729.18) rotate(45)" xlink:href="#_&#xC1;&#xE5;&#xE7;&#xFB;&#xEC;&#xFF;&#xED;&#xED;&#xFB;&#xE9;_&#xE3;&#xF0;&#xE0;&#xE4;&#xE8;&#xE5;&#xED;&#xF2;_349"></linearGradient><linearGradient id="_&#xC1;&#xE5;&#xE7;&#xFB;&#xEC;&#xFF;&#xED;&#xED;&#xFB;&#xE9;_&#xE3;&#xF0;&#xE0;&#xE4;&#xE8;&#xE5;&#xED;&#xF2;_349-3" x1="-4520.09" y1="494.56" x2="-4424.89" y2="494.56" gradientTransform="translate(-528.22 -2880.15) rotate(-135) scale(1 -1)" xlink:href="#_&#xC1;&#xE5;&#xE7;&#xFB;&#xEC;&#xFF;&#xED;&#xED;&#xFB;&#xE9;_&#xE3;&#xF0;&#xE0;&#xE4;&#xE8;&#xE5;&#xED;&#xF2;_349"></linearGradient><linearGradient id="_&#xC1;&#xE5;&#xE7;&#xFB;&#xEC;&#xFF;&#xED;&#xED;&#xFB;&#xE9;_&#xE3;&#xF0;&#xE0;&#xE4;&#xE8;&#xE5;&#xED;&#xF2;_41" x1="1180.96" y1="-1067.72" x2="891.45" y2="-1067.72" gradientTransform="translate(808.46 396.55) rotate(45)" gradientUnits="userSpaceOnUse"><stop offset="0" stop-color="#a3b7e9"></stop><stop offset="1" stop-color="#b8c7ee"></stop></linearGradient><linearGradient id="_&#xC1;&#xE5;&#xE7;&#xFB;&#xEC;&#xFF;&#xED;&#xED;&#xFB;&#xE9;_&#xE3;&#xF0;&#xE0;&#xE4;&#xE8;&#xE5;&#xED;&#xF2;_349-4" x1="3970.27" y1="100.41" x2="4213.33" y2="100.41" gradientTransform="translate(-377.24 -2729.18) rotate(45)" xlink:href="#_&#xC1;&#xE5;&#xE7;&#xFB;&#xEC;&#xFF;&#xED;&#xED;&#xFB;&#xE9;_&#xE3;&#xF0;&#xE0;&#xE4;&#xE8;&#xE5;&#xED;&#xF2;_349"></linearGradient><linearGradient id="_&#xC1;&#xE5;&#xE7;&#xFB;&#xEC;&#xFF;&#xED;&#xED;&#xFB;&#xE9;_&#xE3;&#xF0;&#xE0;&#xE4;&#xE8;&#xE5;&#xED;&#xF2;_384" x1="3977.58" y1="358.61" x2="4206.02" y2="358.61" gradientTransform="translate(-377.24 -2729.18) rotate(45)" gradientUnits="userSpaceOnUse"><stop offset="0" stop-color="#fe958f"></stop><stop offset="1" stop-color="#f77c77"></stop></linearGradient><linearGradient id="_&#xC1;&#xE5;&#xE7;&#xFB;&#xEC;&#xFF;&#xED;&#xED;&#xFB;&#xE9;_&#xE3;&#xF0;&#xE0;&#xE4;&#xE8;&#xE5;&#xED;&#xF2;_71" x1="3995.43" y1="358.61" x2="4188.16" y2="358.61" gradientTransform="translate(-377.24 -2729.18) rotate(45)" gradientUnits="userSpaceOnUse"><stop offset="0" stop-color="#fffbfc"></stop><stop offset="1" stop-color="#ffe2e4"></stop></linearGradient><linearGradient id="_&#xC1;&#xE5;&#xE7;&#xFB;&#xEC;&#xFF;&#xED;&#xED;&#xFB;&#xE9;_&#xE3;&#xF0;&#xE0;&#xE4;&#xE8;&#xE5;&#xED;&#xF2;_384-2" x1="3992.05" y1="625.62" x2="4191.55" y2="625.62" gradientTransform="translate(-2018.07 -19.1)" xlink:href="#_&#xC1;&#xE5;&#xE7;&#xFB;&#xEC;&#xFF;&#xED;&#xED;&#xFB;&#xE9;_&#xE3;&#xF0;&#xE0;&#xE4;&#xE8;&#xE5;&#xED;&#xF2;_384"></linearGradient><linearGradient id="_&#xC1;&#xE5;&#xE7;&#xFB;&#xEC;&#xFF;&#xED;&#xED;&#xFB;&#xE9;_&#xE3;&#xF0;&#xE0;&#xE4;&#xE8;&#xE5;&#xED;&#xF2;_40-2" x1="4002.81" y1="577.76" x2="4570.95" y2="646.72" gradientTransform="translate(4563.65) rotate(-180) scale(1 -1)" xlink:href="#_&#xC1;&#xE5;&#xE7;&#xFB;&#xEC;&#xFF;&#xED;&#xED;&#xFB;&#xE9;_&#xE3;&#xF0;&#xE0;&#xE4;&#xE8;&#xE5;&#xED;&#xF2;_40"></linearGradient><linearGradient id="_&#xC1;&#xE5;&#xE7;&#xFB;&#xEC;&#xFF;&#xED;&#xED;&#xFB;&#xE9;_&#xE3;&#xF0;&#xE0;&#xE4;&#xE8;&#xE5;&#xED;&#xF2;_349-5" x1="3964.28" y1="562.48" x2="4451.48" y2="644.93" gradientTransform="translate(4563.65) rotate(-180) scale(1 -1)" xlink:href="#_&#xC1;&#xE5;&#xE7;&#xFB;&#xEC;&#xFF;&#xED;&#xED;&#xFB;&#xE9;_&#xE3;&#xF0;&#xE0;&#xE4;&#xE8;&#xE5;&#xED;&#xF2;_349"></linearGradient><linearGradient id="_&#xC1;&#xE5;&#xE7;&#xFB;&#xEC;&#xFF;&#xED;&#xED;&#xFB;&#xE9;_&#xE3;&#xF0;&#xE0;&#xE4;&#xE8;&#xE5;&#xED;&#xF2;_349-6" x1="4917.69" y1="828.46" x2="4397.16" y2="828.46" gradientTransform="translate(-3918.32)" xlink:href="#_&#xC1;&#xE5;&#xE7;&#xFB;&#xEC;&#xFF;&#xED;&#xED;&#xFB;&#xE9;_&#xE3;&#xF0;&#xE0;&#xE4;&#xE8;&#xE5;&#xED;&#xF2;_349"></linearGradient><linearGradient id="_&#xC1;&#xE5;&#xE7;&#xFB;&#xEC;&#xFF;&#xED;&#xED;&#xFB;&#xE9;_&#xE3;&#xF0;&#xE0;&#xE4;&#xE8;&#xE5;&#xED;&#xF2;_349-7" x1="4917.69" y1="807.02" x2="4397.16" y2="807.02" gradientTransform="translate(-3918.32)" xlink:href="#_&#xC1;&#xE5;&#xE7;&#xFB;&#xEC;&#xFF;&#xED;&#xED;&#xFB;&#xE9;_&#xE3;&#xF0;&#xE0;&#xE4;&#xE8;&#xE5;&#xED;&#xF2;_349"></linearGradient><linearGradient id="_&#xC1;&#xE5;&#xE7;&#xFB;&#xEC;&#xFF;&#xED;&#xED;&#xFB;&#xE9;_&#xE3;&#xF0;&#xE0;&#xE4;&#xE8;&#xE5;&#xED;&#xF2;_349-8" x1="4917.69" y1="819.94" x2="4397.16" y2="819.94" gradientTransform="translate(-3918.32)" xlink:href="#_&#xC1;&#xE5;&#xE7;&#xFB;&#xEC;&#xFF;&#xED;&#xED;&#xFB;&#xE9;_&#xE3;&#xF0;&#xE0;&#xE4;&#xE8;&#xE5;&#xED;&#xF2;_349"></linearGradient><linearGradient id="_&#xC1;&#xE5;&#xE7;&#xFB;&#xEC;&#xFF;&#xED;&#xED;&#xFB;&#xE9;_&#xE3;&#xF0;&#xE0;&#xE4;&#xE8;&#xE5;&#xED;&#xF2;_349-9" x1="4917.69" y1="804.25" x2="4397.16" y2="804.25" gradientTransform="translate(-3918.32)" xlink:href="#_&#xC1;&#xE5;&#xE7;&#xFB;&#xEC;&#xFF;&#xED;&#xED;&#xFB;&#xE9;_&#xE3;&#xF0;&#xE0;&#xE4;&#xE8;&#xE5;&#xED;&#xF2;_349"></linearGradient><linearGradient id="_&#xC1;&#xE5;&#xE7;&#xFB;&#xEC;&#xFF;&#xED;&#xED;&#xFB;&#xE9;_&#xE3;&#xF0;&#xE0;&#xE4;&#xE8;&#xE5;&#xED;&#xF2;_349-10" x1="4917.69" y1="755.67" x2="4397.16" y2="755.67" gradientTransform="translate(-3918.32)" xlink:href="#_&#xC1;&#xE5;&#xE7;&#xFB;&#xEC;&#xFF;&#xED;&#xED;&#xFB;&#xE9;_&#xE3;&#xF0;&#xE0;&#xE4;&#xE8;&#xE5;&#xED;&#xF2;_349"></linearGradient><linearGradient id="_&#xC1;&#xE5;&#xE7;&#xFB;&#xEC;&#xFF;&#xED;&#xED;&#xFB;&#xE9;_&#xE3;&#xF0;&#xE0;&#xE4;&#xE8;&#xE5;&#xED;&#xF2;_349-11" x1="4917.69" y1="758.93" x2="4397.16" y2="758.93" gradientTransform="translate(-3918.32)" xlink:href="#_&#xC1;&#xE5;&#xE7;&#xFB;&#xEC;&#xFF;&#xED;&#xED;&#xFB;&#xE9;_&#xE3;&#xF0;&#xE0;&#xE4;&#xE8;&#xE5;&#xED;&#xF2;_349"></linearGradient><linearGradient id="_&#xC1;&#xE5;&#xE7;&#xFB;&#xEC;&#xFF;&#xED;&#xED;&#xFB;&#xE9;_&#xE3;&#xF0;&#xE0;&#xE4;&#xE8;&#xE5;&#xED;&#xF2;_349-12" x1="4917.69" y1="782.61" x2="4397.16" y2="782.61" gradientTransform="translate(-3918.32)" xlink:href="#_&#xC1;&#xE5;&#xE7;&#xFB;&#xEC;&#xFF;&#xED;&#xED;&#xFB;&#xE9;_&#xE3;&#xF0;&#xE0;&#xE4;&#xE8;&#xE5;&#xED;&#xF2;_349"></linearGradient><linearGradient id="_&#xC1;&#xE5;&#xE7;&#xFB;&#xEC;&#xFF;&#xED;&#xED;&#xFB;&#xE9;_&#xE3;&#xF0;&#xE0;&#xE4;&#xE8;&#xE5;&#xED;&#xF2;_349-13" x1="4917.69" y1="826.46" x2="4397.16" y2="826.46" gradientTransform="translate(-3918.32)" xlink:href="#_&#xC1;&#xE5;&#xE7;&#xFB;&#xEC;&#xFF;&#xED;&#xED;&#xFB;&#xE9;_&#xE3;&#xF0;&#xE0;&#xE4;&#xE8;&#xE5;&#xED;&#xF2;_349"></linearGradient><linearGradient id="_&#xC1;&#xE5;&#xE7;&#xFB;&#xEC;&#xFF;&#xED;&#xED;&#xFB;&#xE9;_&#xE3;&#xF0;&#xE0;&#xE4;&#xE8;&#xE5;&#xED;&#xF2;_349-14" x1="4917.69" y1="876.6" x2="4397.16" y2="876.6" gradientTransform="translate(-3918.32)" xlink:href="#_&#xC1;&#xE5;&#xE7;&#xFB;&#xEC;&#xFF;&#xED;&#xED;&#xFB;&#xE9;_&#xE3;&#xF0;&#xE0;&#xE4;&#xE8;&#xE5;&#xED;&#xF2;_349"></linearGradient><linearGradient id="_&#xC1;&#xE5;&#xE7;&#xFB;&#xEC;&#xFF;&#xED;&#xED;&#xFB;&#xE9;_&#xE3;&#xF0;&#xE0;&#xE4;&#xE8;&#xE5;&#xED;&#xF2;_349-15" x1="4917.69" y1="779.64" x2="4397.16" y2="779.64" gradientTransform="translate(-3918.32)" xlink:href="#_&#xC1;&#xE5;&#xE7;&#xFB;&#xEC;&#xFF;&#xED;&#xED;&#xFB;&#xE9;_&#xE3;&#xF0;&#xE0;&#xE4;&#xE8;&#xE5;&#xED;&#xF2;_349"></linearGradient><linearGradient id="_&#xC1;&#xE5;&#xE7;&#xFB;&#xEC;&#xFF;&#xED;&#xED;&#xFB;&#xE9;_&#xE3;&#xF0;&#xE0;&#xE4;&#xE8;&#xE5;&#xED;&#xF2;_349-16" x1="4917.69" y1="876.12" x2="4397.16" y2="876.12" gradientTransform="translate(-3918.32)" xlink:href="#_&#xC1;&#xE5;&#xE7;&#xFB;&#xEC;&#xFF;&#xED;&#xED;&#xFB;&#xE9;_&#xE3;&#xF0;&#xE0;&#xE4;&#xE8;&#xE5;&#xED;&#xF2;_349"></linearGradient><linearGradient id="_&#xC1;&#xE5;&#xE7;&#xFB;&#xEC;&#xFF;&#xED;&#xED;&#xFB;&#xE9;_&#xE3;&#xF0;&#xE0;&#xE4;&#xE8;&#xE5;&#xED;&#xF2;_349-17" x1="4917.69" y1="884.18" x2="4397.16" y2="884.18" gradientTransform="translate(-3918.32)" xlink:href="#_&#xC1;&#xE5;&#xE7;&#xFB;&#xEC;&#xFF;&#xED;&#xED;&#xFB;&#xE9;_&#xE3;&#xF0;&#xE0;&#xE4;&#xE8;&#xE5;&#xED;&#xF2;_349"></linearGradient><linearGradient id="_&#xC1;&#xE5;&#xE7;&#xFB;&#xEC;&#xFF;&#xED;&#xED;&#xFB;&#xE9;_&#xE3;&#xF0;&#xE0;&#xE4;&#xE8;&#xE5;&#xED;&#xF2;_349-18" x1="4917.69" y1="850.16" x2="4397.16" y2="850.16" gradientTransform="translate(-3918.32)" xlink:href="#_&#xC1;&#xE5;&#xE7;&#xFB;&#xEC;&#xFF;&#xED;&#xED;&#xFB;&#xE9;_&#xE3;&#xF0;&#xE0;&#xE4;&#xE8;&#xE5;&#xED;&#xF2;_349"></linearGradient><linearGradient id="_&#xC1;&#xE5;&#xE7;&#xFB;&#xEC;&#xFF;&#xED;&#xED;&#xFB;&#xE9;_&#xE3;&#xF0;&#xE0;&#xE4;&#xE8;&#xE5;&#xED;&#xF2;_349-19" x1="4917.69" y1="858.07" x2="4397.16" y2="858.07" gradientTransform="translate(-3918.32)" xlink:href="#_&#xC1;&#xE5;&#xE7;&#xFB;&#xEC;&#xFF;&#xED;&#xED;&#xFB;&#xE9;_&#xE3;&#xF0;&#xE0;&#xE4;&#xE8;&#xE5;&#xED;&#xF2;_349"></linearGradient><linearGradient id="_&#xC1;&#xE5;&#xE7;&#xFB;&#xEC;&#xFF;&#xED;&#xED;&#xFB;&#xE9;_&#xE3;&#xF0;&#xE0;&#xE4;&#xE8;&#xE5;&#xED;&#xF2;_349-20" x1="4917.69" y1="734.88" x2="4397.16" y2="734.88" gradientTransform="translate(-3918.32)" xlink:href="#_&#xC1;&#xE5;&#xE7;&#xFB;&#xEC;&#xFF;&#xED;&#xED;&#xFB;&#xE9;_&#xE3;&#xF0;&#xE0;&#xE4;&#xE8;&#xE5;&#xED;&#xF2;_349"></linearGradient><linearGradient id="_&#xC1;&#xE5;&#xE7;&#xFB;&#xEC;&#xFF;&#xED;&#xED;&#xFB;&#xE9;_&#xE3;&#xF0;&#xE0;&#xE4;&#xE8;&#xE5;&#xED;&#xF2;_349-21" x1="4917.69" y1="725.86" x2="4397.16" y2="725.86" gradientTransform="translate(-3918.32)" xlink:href="#_&#xC1;&#xE5;&#xE7;&#xFB;&#xEC;&#xFF;&#xED;&#xED;&#xFB;&#xE9;_&#xE3;&#xF0;&#xE0;&#xE4;&#xE8;&#xE5;&#xED;&#xF2;_349"></linearGradient><linearGradient id="_&#xC1;&#xE5;&#xE7;&#xFB;&#xEC;&#xFF;&#xED;&#xED;&#xFB;&#xE9;_&#xE3;&#xF0;&#xE0;&#xE4;&#xE8;&#xE5;&#xED;&#xF2;_349-22" x1="4917.69" y1="811.08" x2="4397.16" y2="811.08" gradientTransform="translate(-3918.32)" xlink:href="#_&#xC1;&#xE5;&#xE7;&#xFB;&#xEC;&#xFF;&#xED;&#xED;&#xFB;&#xE9;_&#xE3;&#xF0;&#xE0;&#xE4;&#xE8;&#xE5;&#xED;&#xF2;_349"></linearGradient><linearGradient id="_&#xC1;&#xE5;&#xE7;&#xFB;&#xEC;&#xFF;&#xED;&#xED;&#xFB;&#xE9;_&#xE3;&#xF0;&#xE0;&#xE4;&#xE8;&#xE5;&#xED;&#xF2;_349-23" x1="4929.04" y1="836.67" x2="4396.61" y2="836.67" gradientTransform="translate(-3918.32)" xlink:href="#_&#xC1;&#xE5;&#xE7;&#xFB;&#xEC;&#xFF;&#xED;&#xED;&#xFB;&#xE9;_&#xE3;&#xF0;&#xE0;&#xE4;&#xE8;&#xE5;&#xED;&#xF2;_349"></linearGradient><linearGradient id="_&#xC1;&#xE5;&#xE7;&#xFB;&#xEC;&#xFF;&#xED;&#xED;&#xFB;&#xE9;_&#xE3;&#xF0;&#xE0;&#xE4;&#xE8;&#xE5;&#xED;&#xF2;_357" x1="510.94" y1="1135.77" x2="2675.24" y2="1135.77" gradientUnits="userSpaceOnUse"><stop offset="0" stop-color="#435ac2"></stop><stop offset="1" stop-color="#0f24a4"></stop></linearGradient><linearGradient id="_&#xC1;&#xE5;&#xE7;&#xFB;&#xEC;&#xFF;&#xED;&#xED;&#xFB;&#xE9;_&#xE3;&#xF0;&#xE0;&#xE4;&#xE8;&#xE5;&#xED;&#xF2;_349-24" x1="3318.8" y1="2501.19" x2="3318.8" y2="-145.35" gradientTransform="matrix(1,0,0,1,0,0)" xlink:href="#_&#xC1;&#xE5;&#xE7;&#xFB;&#xEC;&#xFF;&#xED;&#xED;&#xFB;&#xE9;_&#xE3;&#xF0;&#xE0;&#xE4;&#xE8;&#xE5;&#xED;&#xF2;_349"></linearGradient><linearGradient id="_&#xC1;&#xE5;&#xE7;&#xFB;&#xEC;&#xFF;&#xED;&#xED;&#xFB;&#xE9;_&#xE3;&#xF0;&#xE0;&#xE4;&#xE8;&#xE5;&#xED;&#xF2;_357-2" x1="2060.25" y1="2097.38" x2="5001.41" y2="2097.38" xlink:href="#_&#xC1;&#xE5;&#xE7;&#xFB;&#xEC;&#xFF;&#xED;&#xED;&#xFB;&#xE9;_&#xE3;&#xF0;&#xE0;&#xE4;&#xE8;&#xE5;&#xED;&#xF2;_357"></linearGradient><linearGradient id="_&#xC1;&#xE5;&#xE7;&#xFB;&#xEC;&#xFF;&#xED;&#xED;&#xFB;&#xE9;_&#xE3;&#xF0;&#xE0;&#xE4;&#xE8;&#xE5;&#xED;&#xF2;_357-3" x1="3421.35" y1="1135.77" x2="1414.52" y2="1135.77" xlink:href="#_&#xC1;&#xE5;&#xE7;&#xFB;&#xEC;&#xFF;&#xED;&#xED;&#xFB;&#xE9;_&#xE3;&#xF0;&#xE0;&#xE4;&#xE8;&#xE5;&#xED;&#xF2;_357"></linearGradient><linearGradient id="_&#xC1;&#xE5;&#xE7;&#xFB;&#xEC;&#xFF;&#xED;&#xED;&#xFB;&#xE9;_&#xE3;&#xF0;&#xE0;&#xE4;&#xE8;&#xE5;&#xED;&#xF2;_349-25" x1="2911.23" y1="736.97" x2="1560.73" y2="2087.47" gradientTransform="matrix(1,0,0,1,0,0)" xlink:href="#_&#xC1;&#xE5;&#xE7;&#xFB;&#xEC;&#xFF;&#xED;&#xED;&#xFB;&#xE9;_&#xE3;&#xF0;&#xE0;&#xE4;&#xE8;&#xE5;&#xED;&#xF2;_349"></linearGradient><linearGradient id="_&#xC1;&#xE5;&#xE7;&#xFB;&#xEC;&#xFF;&#xED;&#xED;&#xFB;&#xE9;_&#xE3;&#xF0;&#xE0;&#xE4;&#xE8;&#xE5;&#xED;&#xF2;_349-26" x1="769.42" y1="2366.28" x2="769.42" y2="-425.85" gradientTransform="matrix(1,0,0,1,0,0)" xlink:href="#_&#xC1;&#xE5;&#xE7;&#xFB;&#xEC;&#xFF;&#xED;&#xED;&#xFB;&#xE9;_&#xE3;&#xF0;&#xE0;&#xE4;&#xE8;&#xE5;&#xED;&#xF2;_349"></linearGradient><linearGradient id="_&#xC1;&#xE5;&#xE7;&#xFB;&#xEC;&#xFF;&#xED;&#xED;&#xFB;&#xE9;_&#xE3;&#xF0;&#xE0;&#xE4;&#xE8;&#xE5;&#xED;&#xF2;_357-4" x1="3021.68" y1="2097.38" x2="-917.01" y2="2097.38" xlink:href="#_&#xC1;&#xE5;&#xE7;&#xFB;&#xEC;&#xFF;&#xED;&#xED;&#xFB;&#xE9;_&#xE3;&#xF0;&#xE0;&#xE4;&#xE8;&#xE5;&#xED;&#xF2;_357"></linearGradient><linearGradient id="_&#xC1;&#xE5;&#xE7;&#xFB;&#xEC;&#xFF;&#xED;&#xED;&#xFB;&#xE9;_&#xE3;&#xF0;&#xE0;&#xE4;&#xE8;&#xE5;&#xED;&#xF2;_349-27" x1="1573.51" y1="1133.48" x2="3400.38" y2="2960.35" gradientTransform="matrix(1,0,0,1,0,0)" xlink:href="#_&#xC1;&#xE5;&#xE7;&#xFB;&#xEC;&#xFF;&#xED;&#xED;&#xFB;&#xE9;_&#xE3;&#xF0;&#xE0;&#xE4;&#xE8;&#xE5;&#xED;&#xF2;_349"></linearGradient><linearGradient id="_&#xC1;&#xE5;&#xE7;&#xFB;&#xEC;&#xFF;&#xED;&#xED;&#xFB;&#xE9;_&#xE3;&#xF0;&#xE0;&#xE4;&#xE8;&#xE5;&#xED;&#xF2;_384-3" x1="2504.23" y1="896.89" x2="2647.17" y2="983.39" gradientTransform="matrix(1,0,0,1,0,0)" xlink:href="#_&#xC1;&#xE5;&#xE7;&#xFB;&#xEC;&#xFF;&#xED;&#xED;&#xFB;&#xE9;_&#xE3;&#xF0;&#xE0;&#xE4;&#xE8;&#xE5;&#xED;&#xF2;_384"></linearGradient><linearGradient id="_&#xC1;&#xE5;&#xE7;&#xFB;&#xEC;&#xFF;&#xED;&#xED;&#xFB;&#xE9;_&#xE3;&#xF0;&#xE0;&#xE4;&#xE8;&#xE5;&#xED;&#xF2;_379" x1="2487.23" y1="879.97" x2="2739.39" y2="940.08" gradientUnits="userSpaceOnUse"><stop offset="0" stop-color="#ffc1c2"></stop><stop offset="1" stop-color="#fe958f"></stop></linearGradient><linearGradient id="_&#xC1;&#xE5;&#xE7;&#xFB;&#xEC;&#xFF;&#xED;&#xED;&#xFB;&#xE9;_&#xE3;&#xF0;&#xE0;&#xE4;&#xE8;&#xE5;&#xED;&#xF2;_357-5" x1="1301.66" y1="760.95" x2="1244.19" y2="775.08" gradientTransform="translate(3945.82) rotate(-180) scale(1 -1)" xlink:href="#_&#xC1;&#xE5;&#xE7;&#xFB;&#xEC;&#xFF;&#xED;&#xED;&#xFB;&#xE9;_&#xE3;&#xF0;&#xE0;&#xE4;&#xE8;&#xE5;&#xED;&#xF2;_357"></linearGradient><linearGradient id="_&#xC1;&#xE5;&#xE7;&#xFB;&#xEC;&#xFF;&#xED;&#xED;&#xFB;&#xE9;_&#xE3;&#xF0;&#xE0;&#xE4;&#xE8;&#xE5;&#xED;&#xF2;_379-2" x1="-1916.27" y1="1035.78" x2="-1778.29" y2="1035.78" gradientTransform="translate(4622.18 -178.34) rotate(2.75)" xlink:href="#_&#xC1;&#xE5;&#xE7;&#xFB;&#xEC;&#xFF;&#xED;&#xED;&#xFB;&#xE9;_&#xE3;&#xF0;&#xE0;&#xE4;&#xE8;&#xE5;&#xED;&#xF2;_379"></linearGradient><linearGradient id="_&#xC1;&#xE5;&#xE7;&#xFB;&#xEC;&#xFF;&#xED;&#xED;&#xFB;&#xE9;_&#xE3;&#xF0;&#xE0;&#xE4;&#xE8;&#xE5;&#xED;&#xF2;_349-28" x1="1276.48" y1="784.6" x2="1140.52" y2="772.77" gradientTransform="translate(3945.82) rotate(-180) scale(1 -1)" xlink:href="#_&#xC1;&#xE5;&#xE7;&#xFB;&#xEC;&#xFF;&#xED;&#xED;&#xFB;&#xE9;_&#xE3;&#xF0;&#xE0;&#xE4;&#xE8;&#xE5;&#xED;&#xF2;_349"></linearGradient><linearGradient id="_&#xC1;&#xE5;&#xE7;&#xFB;&#xEC;&#xFF;&#xED;&#xED;&#xFB;&#xE9;_&#xE3;&#xF0;&#xE0;&#xE4;&#xE8;&#xE5;&#xED;&#xF2;_349-29" x1="-2063.18" y1="1129.13" x2="-1952.88" y2="1129.13" gradientTransform="translate(4570.34 -275.95)" xlink:href="#_&#xC1;&#xE5;&#xE7;&#xFB;&#xEC;&#xFF;&#xED;&#xED;&#xFB;&#xE9;_&#xE3;&#xF0;&#xE0;&#xE4;&#xE8;&#xE5;&#xED;&#xF2;_349"></linearGradient><linearGradient id="_&#xC1;&#xE5;&#xE7;&#xFB;&#xEC;&#xFF;&#xED;&#xED;&#xFB;&#xE9;_&#xE3;&#xF0;&#xE0;&#xE4;&#xE8;&#xE5;&#xED;&#xF2;_349-30" x1="-2074.07" y1="1098.62" x2="-1991.35" y2="1098.62" gradientTransform="translate(4622.18 -178.34) rotate(2.75)" xlink:href="#_&#xC1;&#xE5;&#xE7;&#xFB;&#xEC;&#xFF;&#xED;&#xED;&#xFB;&#xE9;_&#xE3;&#xF0;&#xE0;&#xE4;&#xE8;&#xE5;&#xED;&#xF2;_349"></linearGradient><linearGradient id="_&#xC1;&#xE5;&#xE7;&#xFB;&#xEC;&#xFF;&#xED;&#xED;&#xFB;&#xE9;_&#xE3;&#xF0;&#xE0;&#xE4;&#xE8;&#xE5;&#xED;&#xF2;_38" x1="-2043.51" y1="1088.56" x2="-2031.63" y2="1088.56" gradientTransform="translate(4622.18 -178.34) rotate(2.75)" gradientUnits="userSpaceOnUse"><stop offset="0" stop-color="#8095da"></stop><stop offset="1" stop-color="#a1b5e9"></stop></linearGradient><linearGradient id="_&#xC1;&#xE5;&#xE7;&#xFB;&#xEC;&#xFF;&#xED;&#xED;&#xFB;&#xE9;_&#xE3;&#xF0;&#xE0;&#xE4;&#xE8;&#xE5;&#xED;&#xF2;_357-6" x1="1267.56" y1="769.06" x2="1186.77" y2="794.35" gradientTransform="translate(3945.82) rotate(-180) scale(1 -1)" xlink:href="#_&#xC1;&#xE5;&#xE7;&#xFB;&#xEC;&#xFF;&#xED;&#xED;&#xFB;&#xE9;_&#xE3;&#xF0;&#xE0;&#xE4;&#xE8;&#xE5;&#xED;&#xF2;_357"></linearGradient><linearGradient id="_&#xC1;&#xE5;&#xE7;&#xFB;&#xEC;&#xFF;&#xED;&#xED;&#xFB;&#xE9;_&#xE3;&#xF0;&#xE0;&#xE4;&#xE8;&#xE5;&#xED;&#xF2;_384-4" x1="1588.58" y1="853.81" x2="1407.52" y2="963.03" gradientTransform="matrix(1,0,0,1,0,0)" xlink:href="#_&#xC1;&#xE5;&#xE7;&#xFB;&#xEC;&#xFF;&#xED;&#xED;&#xFB;&#xE9;_&#xE3;&#xF0;&#xE0;&#xE4;&#xE8;&#xE5;&#xED;&#xF2;_384"></linearGradient><linearGradient id="_&#xC1;&#xE5;&#xE7;&#xFB;&#xEC;&#xFF;&#xED;&#xED;&#xFB;&#xE9;_&#xE3;&#xF0;&#xE0;&#xE4;&#xE8;&#xE5;&#xED;&#xF2;_379-3" x1="1610.24" y1="896.56" x2="1435.79" y2="982.32" xlink:href="#_&#xC1;&#xE5;&#xE7;&#xFB;&#xEC;&#xFF;&#xED;&#xED;&#xFB;&#xE9;_&#xE3;&#xF0;&#xE0;&#xE4;&#xE8;&#xE5;&#xED;&#xF2;_379"></linearGradient><linearGradient id="_&#xC1;&#xE5;&#xE7;&#xFB;&#xEC;&#xFF;&#xED;&#xED;&#xFB;&#xE9;_&#xE3;&#xF0;&#xE0;&#xE4;&#xE8;&#xE5;&#xED;&#xF2;_357-7" x1="1519.56" y1="764.65" x2="1400.81" y2="769.78" xlink:href="#_&#xC1;&#xE5;&#xE7;&#xFB;&#xEC;&#xFF;&#xED;&#xED;&#xFB;&#xE9;_&#xE3;&#xF0;&#xE0;&#xE4;&#xE8;&#xE5;&#xED;&#xF2;_357"></linearGradient><linearGradient id="_&#xC1;&#xE5;&#xE7;&#xFB;&#xEC;&#xFF;&#xED;&#xED;&#xFB;&#xE9;_&#xE3;&#xF0;&#xE0;&#xE4;&#xE8;&#xE5;&#xED;&#xF2;_357-8" x1="1467.27" y1="792.22" x2="1345.59" y2="766.57" xlink:href="#_&#xC1;&#xE5;&#xE7;&#xFB;&#xEC;&#xFF;&#xED;&#xED;&#xFB;&#xE9;_&#xE3;&#xF0;&#xE0;&#xE4;&#xE8;&#xE5;&#xED;&#xF2;_357"></linearGradient><linearGradient id="_&#xC1;&#xE5;&#xE7;&#xFB;&#xEC;&#xFF;&#xED;&#xED;&#xFB;&#xE9;_&#xE3;&#xF0;&#xE0;&#xE4;&#xE8;&#xE5;&#xED;&#xF2;_357-9" x1="2573.14" y1="798" x2="2621.86" y2="784.44" gradientTransform="translate(3945.82) rotate(-180) scale(1 -1)" xlink:href="#_&#xC1;&#xE5;&#xE7;&#xFB;&#xEC;&#xFF;&#xED;&#xED;&#xFB;&#xE9;_&#xE3;&#xF0;&#xE0;&#xE4;&#xE8;&#xE5;&#xED;&#xF2;_357"></linearGradient><linearGradient id="_&#xC1;&#xE5;&#xE7;&#xFB;&#xEC;&#xFF;&#xED;&#xED;&#xFB;&#xE9;_&#xE3;&#xF0;&#xE0;&#xE4;&#xE8;&#xE5;&#xED;&#xF2;_357-10" x1="10473.32" y1="793.55" x2="10574.91" y2="793.55" gradientTransform="translate(-8959.06)" xlink:href="#_&#xC1;&#xE5;&#xE7;&#xFB;&#xEC;&#xFF;&#xED;&#xED;&#xFB;&#xE9;_&#xE3;&#xF0;&#xE0;&#xE4;&#xE8;&#xE5;&#xED;&#xF2;_357"></linearGradient><linearGradient id="_&#xC1;&#xE5;&#xE7;&#xFB;&#xEC;&#xFF;&#xED;&#xED;&#xFB;&#xE9;_&#xE3;&#xF0;&#xE0;&#xE4;&#xE8;&#xE5;&#xED;&#xF2;_2-3" x1="1249.7" y1="222.45" x2="2522.61" y2="222.45" gradientTransform="matrix(1,0,0,1,0,0)" xlink:href="#_&#xC1;&#xE5;&#xE7;&#xFB;&#xEC;&#xFF;&#xED;&#xED;&#xFB;&#xE9;_&#xE3;&#xF0;&#xE0;&#xE4;&#xE8;&#xE5;&#xED;&#xF2;_2"></linearGradient><linearGradient id="_&#xC1;&#xE5;&#xE7;&#xFB;&#xEC;&#xFF;&#xED;&#xED;&#xFB;&#xE9;_&#xE3;&#xF0;&#xE0;&#xE4;&#xE8;&#xE5;&#xED;&#xF2;_2-4" x1="1237.54" y1="228.09" x2="2575.53" y2="228.09" gradientTransform="matrix(1,0,0,1,0,0)" xlink:href="#_&#xC1;&#xE5;&#xE7;&#xFB;&#xEC;&#xFF;&#xED;&#xED;&#xFB;&#xE9;_&#xE3;&#xF0;&#xE0;&#xE4;&#xE8;&#xE5;&#xED;&#xF2;_2"></linearGradient><linearGradient id="_&#xC1;&#xE5;&#xE7;&#xFB;&#xEC;&#xFF;&#xED;&#xED;&#xFB;&#xE9;_&#xE3;&#xF0;&#xE0;&#xE4;&#xE8;&#xE5;&#xED;&#xF2;_2-5" x1="1249.7" y1="222.45" x2="2522.61" y2="222.45" gradientTransform="matrix(1,0,0,1,0,0)" xlink:href="#_&#xC1;&#xE5;&#xE7;&#xFB;&#xEC;&#xFF;&#xED;&#xED;&#xFB;&#xE9;_&#xE3;&#xF0;&#xE0;&#xE4;&#xE8;&#xE5;&#xED;&#xF2;_2"></linearGradient><linearGradient id="_&#xC1;&#xE5;&#xE7;&#xFB;&#xEC;&#xFF;&#xED;&#xED;&#xFB;&#xE9;_&#xE3;&#xF0;&#xE0;&#xE4;&#xE8;&#xE5;&#xED;&#xF2;_349-31" x1="3146.39" y1="767.42" x2="4753.39" y2="767.42" gradientTransform="matrix(1,0,0,1,0,0)" xlink:href="#_&#xC1;&#xE5;&#xE7;&#xFB;&#xEC;&#xFF;&#xED;&#xED;&#xFB;&#xE9;_&#xE3;&#xF0;&#xE0;&#xE4;&#xE8;&#xE5;&#xED;&#xF2;_349"></linearGradient><linearGradient id="_&#xC1;&#xE5;&#xE7;&#xFB;&#xEC;&#xFF;&#xED;&#xED;&#xFB;&#xE9;_&#xE3;&#xF0;&#xE0;&#xE4;&#xE8;&#xE5;&#xED;&#xF2;_349-32" x1="3086.54" y1="767.42" x2="4693.54" y2="767.42" gradientTransform="matrix(1,0,0,1,0,0)" xlink:href="#_&#xC1;&#xE5;&#xE7;&#xFB;&#xEC;&#xFF;&#xED;&#xED;&#xFB;&#xE9;_&#xE3;&#xF0;&#xE0;&#xE4;&#xE8;&#xE5;&#xED;&#xF2;_349"></linearGradient><linearGradient id="_&#xC1;&#xE5;&#xE7;&#xFB;&#xEC;&#xFF;&#xED;&#xED;&#xFB;&#xE9;_&#xE3;&#xF0;&#xE0;&#xE4;&#xE8;&#xE5;&#xED;&#xF2;_339-10" x1="525.16" y1="2306.38" x2="758.45" y2="2306.38" gradientTransform="translate(2092.42 -469.59) rotate(4.92)" xlink:href="#_&#xC1;&#xE5;&#xE7;&#xFB;&#xEC;&#xFF;&#xED;&#xED;&#xFB;&#xE9;_&#xE3;&#xF0;&#xE0;&#xE4;&#xE8;&#xE5;&#xED;&#xF2;_339"></linearGradient><linearGradient id="_&#xC1;&#xE5;&#xE7;&#xFB;&#xEC;&#xFF;&#xED;&#xED;&#xFB;&#xE9;_&#xE3;&#xF0;&#xE0;&#xE4;&#xE8;&#xE5;&#xED;&#xF2;_52" x1="520.18" y1="1625.25" x2="578.11" y2="1625.25" gradientTransform="translate(1371.63 971.89) rotate(-30.09)" gradientUnits="userSpaceOnUse"><stop offset="0" stop-color="#0f24a4"></stop><stop offset="1" stop-color="#152070"></stop></linearGradient><linearGradient id="_&#xC1;&#xE5;&#xE7;&#xFB;&#xEC;&#xFF;&#xED;&#xED;&#xFB;&#xE9;_&#xE3;&#xF0;&#xE0;&#xE4;&#xE8;&#xE5;&#xED;&#xF2;_52-2" x1="685.24" y1="2479.72" x2="949.32" y2="2479.72" gradientTransform="translate(2382.81 -723.31) rotate(14.92)" xlink:href="#_&#xC1;&#xE5;&#xE7;&#xFB;&#xEC;&#xFF;&#xED;&#xED;&#xFB;&#xE9;_&#xE3;&#xF0;&#xE0;&#xE4;&#xE8;&#xE5;&#xED;&#xF2;_52"></linearGradient><linearGradient id="_&#xC1;&#xE5;&#xE7;&#xFB;&#xEC;&#xFF;&#xED;&#xED;&#xFB;&#xE9;_&#xE3;&#xF0;&#xE0;&#xE4;&#xE8;&#xE5;&#xED;&#xF2;_379-4" x1="525.24" y1="1534.86" x2="573.07" y2="1534.86" gradientTransform="translate(1371.63 971.89) rotate(-30.09)" xlink:href="#_&#xC1;&#xE5;&#xE7;&#xFB;&#xEC;&#xFF;&#xED;&#xED;&#xFB;&#xE9;_&#xE3;&#xF0;&#xE0;&#xE4;&#xE8;&#xE5;&#xED;&#xF2;_379"></linearGradient><linearGradient id="_&#xC1;&#xE5;&#xE7;&#xFB;&#xEC;&#xFF;&#xED;&#xED;&#xFB;&#xE9;_&#xE3;&#xF0;&#xE0;&#xE4;&#xE8;&#xE5;&#xED;&#xF2;_379-5" x1="524.49" y1="1564.49" x2="573.82" y2="1564.49" gradientTransform="translate(1371.63 971.89) rotate(-30.09)" xlink:href="#_&#xC1;&#xE5;&#xE7;&#xFB;&#xEC;&#xFF;&#xED;&#xED;&#xFB;&#xE9;_&#xE3;&#xF0;&#xE0;&#xE4;&#xE8;&#xE5;&#xED;&#xF2;_379"></linearGradient><linearGradient id="_&#xC1;&#xE5;&#xE7;&#xFB;&#xEC;&#xFF;&#xED;&#xED;&#xFB;&#xE9;_&#xE3;&#xF0;&#xE0;&#xE4;&#xE8;&#xE5;&#xED;&#xF2;_379-6" x1="-2103.02" y1="2009.89" x2="-2221.14" y2="2054.62" gradientTransform="translate(647.89) rotate(-180) scale(1 -1)" xlink:href="#_&#xC1;&#xE5;&#xE7;&#xFB;&#xEC;&#xFF;&#xED;&#xED;&#xFB;&#xE9;_&#xE3;&#xF0;&#xE0;&#xE4;&#xE8;&#xE5;&#xED;&#xF2;_379"></linearGradient><linearGradient id="_&#xC1;&#xE5;&#xE7;&#xFB;&#xEC;&#xFF;&#xED;&#xED;&#xFB;&#xE9;_&#xE3;&#xF0;&#xE0;&#xE4;&#xE8;&#xE5;&#xED;&#xF2;_349-33" x1="2761.91" y1="2317.61" x2="2880.66" y2="2316.14" gradientTransform="matrix(1,0,0,1,0,0)" xlink:href="#_&#xC1;&#xE5;&#xE7;&#xFB;&#xEC;&#xFF;&#xED;&#xED;&#xFB;&#xE9;_&#xE3;&#xF0;&#xE0;&#xE4;&#xE8;&#xE5;&#xED;&#xF2;_349"></linearGradient><linearGradient id="_&#xC1;&#xE5;&#xE7;&#xFB;&#xEC;&#xFF;&#xED;&#xED;&#xFB;&#xE9;_&#xE3;&#xF0;&#xE0;&#xE4;&#xE8;&#xE5;&#xED;&#xF2;_349-34" x1="-1633.09" y1="2324.67" x2="-1529.11" y2="2301.74" gradientTransform="translate(4497.97)" xlink:href="#_&#xC1;&#xE5;&#xE7;&#xFB;&#xEC;&#xFF;&#xED;&#xED;&#xFB;&#xE9;_&#xE3;&#xF0;&#xE0;&#xE4;&#xE8;&#xE5;&#xED;&#xF2;_349"></linearGradient><linearGradient id="_&#xC1;&#xE5;&#xE7;&#xFB;&#xEC;&#xFF;&#xED;&#xED;&#xFB;&#xE9;_&#xE3;&#xF0;&#xE0;&#xE4;&#xE8;&#xE5;&#xED;&#xF2;_384-5" x1="-2148.17" y1="2027.91" x2="-2312.74" y2="2041.1" gradientTransform="translate(647.89) rotate(-180) scale(1 -1)" xlink:href="#_&#xC1;&#xE5;&#xE7;&#xFB;&#xEC;&#xFF;&#xED;&#xED;&#xFB;&#xE9;_&#xE3;&#xF0;&#xE0;&#xE4;&#xE8;&#xE5;&#xED;&#xF2;_384"></linearGradient><linearGradient id="_&#xC1;&#xE5;&#xE7;&#xFB;&#xEC;&#xFF;&#xED;&#xED;&#xFB;&#xE9;_&#xE3;&#xF0;&#xE0;&#xE4;&#xE8;&#xE5;&#xED;&#xF2;_379-7" x1="-1617.11" y1="2061.31" x2="-1540.15" y2="2048.48" gradientTransform="translate(4497.97)" xlink:href="#_&#xC1;&#xE5;&#xE7;&#xFB;&#xEC;&#xFF;&#xED;&#xED;&#xFB;&#xE9;_&#xE3;&#xF0;&#xE0;&#xE4;&#xE8;&#xE5;&#xED;&#xF2;_379"></linearGradient><linearGradient id="_&#xC1;&#xE5;&#xE7;&#xFB;&#xEC;&#xFF;&#xED;&#xED;&#xFB;&#xE9;_&#xE3;&#xF0;&#xE0;&#xE4;&#xE8;&#xE5;&#xED;&#xF2;_17" x1="1516.51" y1="1641.87" x2="1516.51" y2="2048.12" gradientTransform="translate(5.58 226.23)" gradientUnits="userSpaceOnUse"><stop offset="0" stop-color="#fdbfc0"></stop><stop offset="1" stop-color="#fc938d"></stop></linearGradient><linearGradient id="_&#xC1;&#xE5;&#xE7;&#xFB;&#xEC;&#xFF;&#xED;&#xED;&#xFB;&#xE9;_&#xE3;&#xF0;&#xE0;&#xE4;&#xE8;&#xE5;&#xED;&#xF2;_17-2" x1="1449.71" y1="1642.92" x2="1449.71" y2="2041.1" gradientTransform="translate(1045.63 -279.85) rotate(30)" xlink:href="#_&#xC1;&#xE5;&#xE7;&#xFB;&#xEC;&#xFF;&#xED;&#xED;&#xFB;&#xE9;_&#xE3;&#xF0;&#xE0;&#xE4;&#xE8;&#xE5;&#xED;&#xF2;_17"></linearGradient><linearGradient id="_&#xC1;&#xE5;&#xE7;&#xFB;&#xEC;&#xFF;&#xED;&#xED;&#xFB;&#xE9;_&#xE3;&#xF0;&#xE0;&#xE4;&#xE8;&#xE5;&#xED;&#xF2;_17-3" x1="1400.8" y1="1644.6" x2="1400.8" y2="2039.95" gradientTransform="translate(2209.01 -129.61) rotate(60)" xlink:href="#_&#xC1;&#xE5;&#xE7;&#xFB;&#xEC;&#xFF;&#xED;&#xED;&#xFB;&#xE9;_&#xE3;&#xF0;&#xE0;&#xE4;&#xE8;&#xE5;&#xED;&#xF2;_17"></linearGradient><linearGradient id="_&#xC1;&#xE5;&#xE7;&#xFB;&#xEC;&#xFF;&#xED;&#xED;&#xFB;&#xE9;_&#xE3;&#xF0;&#xE0;&#xE4;&#xE8;&#xE5;&#xED;&#xF2;_17-4" x1="1382.9" y1="1641.84" x2="1382.9" y2="2048.14" gradientTransform="translate(3183.97 636.64) rotate(90)" xlink:href="#_&#xC1;&#xE5;&#xE7;&#xFB;&#xEC;&#xFF;&#xED;&#xED;&#xFB;&#xE9;_&#xE3;&#xF0;&#xE0;&#xE4;&#xE8;&#xE5;&#xED;&#xF2;_17"></linearGradient><linearGradient id="_&#xC1;&#xE5;&#xE7;&#xFB;&#xEC;&#xFF;&#xED;&#xED;&#xFB;&#xE9;_&#xE3;&#xF0;&#xE0;&#xE4;&#xE8;&#xE5;&#xED;&#xF2;_17-5" x1="1400.79" y1="1648.2" x2="1400.79" y2="2043.52" gradientTransform="translate(3709.33 1813.63) rotate(120)" xlink:href="#_&#xC1;&#xE5;&#xE7;&#xFB;&#xEC;&#xFF;&#xED;&#xED;&#xFB;&#xE9;_&#xE3;&#xF0;&#xE0;&#xE4;&#xE8;&#xE5;&#xED;&#xF2;_17"></linearGradient><linearGradient id="_&#xC1;&#xE5;&#xE7;&#xFB;&#xEC;&#xFF;&#xED;&#xED;&#xFB;&#xE9;_&#xE3;&#xF0;&#xE0;&#xE4;&#xE8;&#xE5;&#xED;&#xF2;_17-6" x1="1632.22" y1="1648.19" x2="1632.22" y2="2043.55" gradientTransform="translate(802.93 4468.64) rotate(-120)" xlink:href="#_&#xC1;&#xE5;&#xE7;&#xFB;&#xEC;&#xFF;&#xED;&#xED;&#xFB;&#xE9;_&#xE3;&#xF0;&#xE0;&#xE4;&#xE8;&#xE5;&#xED;&#xF2;_17"></linearGradient><linearGradient id="_&#xC1;&#xE5;&#xE7;&#xFB;&#xEC;&#xFF;&#xED;&#xED;&#xFB;&#xE9;_&#xE3;&#xF0;&#xE0;&#xE4;&#xE8;&#xE5;&#xED;&#xF2;_17-7" x1="1650.12" y1="1641.85" x2="1650.12" y2="2048.16" gradientTransform="translate(-172.08 3702.37) rotate(-90)" xlink:href="#_&#xC1;&#xE5;&#xE7;&#xFB;&#xEC;&#xFF;&#xED;&#xED;&#xFB;&#xE9;_&#xE3;&#xF0;&#xE0;&#xE4;&#xE8;&#xE5;&#xED;&#xF2;_17"></linearGradient><linearGradient id="_&#xC1;&#xE5;&#xE7;&#xFB;&#xEC;&#xFF;&#xED;&#xED;&#xFB;&#xE9;_&#xE3;&#xF0;&#xE0;&#xE4;&#xE8;&#xE5;&#xED;&#xF2;_17-8" x1="1632.22" y1="1644.61" x2="1632.22" y2="2039.94" gradientTransform="translate(-697.44 2525.41) rotate(-60)" xlink:href="#_&#xC1;&#xE5;&#xE7;&#xFB;&#xEC;&#xFF;&#xED;&#xED;&#xFB;&#xE9;_&#xE3;&#xF0;&#xE0;&#xE4;&#xE8;&#xE5;&#xED;&#xF2;_17"></linearGradient><linearGradient id="_&#xC1;&#xE5;&#xE7;&#xFB;&#xEC;&#xFF;&#xED;&#xED;&#xFB;&#xE9;_&#xE3;&#xF0;&#xE0;&#xE4;&#xE8;&#xE5;&#xED;&#xF2;_17-9" x1="1583.32" y1="1642.92" x2="1583.32" y2="2041.1" gradientTransform="translate(-632.42 1253.03) rotate(-30)" xlink:href="#_&#xC1;&#xE5;&#xE7;&#xFB;&#xEC;&#xFF;&#xED;&#xED;&#xFB;&#xE9;_&#xE3;&#xF0;&#xE0;&#xE4;&#xE8;&#xE5;&#xED;&#xF2;_17"></linearGradient><linearGradient id="_&#xC1;&#xE5;&#xE7;&#xFB;&#xEC;&#xFF;&#xED;&#xED;&#xFB;&#xE9;_&#xE3;&#xF0;&#xE0;&#xE4;&#xE8;&#xE5;&#xED;&#xF2;_57" x1="1433.68" y1="1824.47" x2="1599.34" y2="1824.47" gradientTransform="translate(220.83 54.21) rotate(6.98)" gradientUnits="userSpaceOnUse"><stop offset="0" stop-color="#ffe2e4"></stop><stop offset="1" stop-color="#ffc1c2"></stop></linearGradient><linearGradient id="_&#xC1;&#xE5;&#xE7;&#xFB;&#xEC;&#xFF;&#xED;&#xED;&#xFB;&#xE9;_&#xE3;&#xF0;&#xE0;&#xE4;&#xE8;&#xE5;&#xED;&#xF2;_349-35" x1="1470.77" y1="1964" x2="1562.23" y2="1964" gradientTransform="translate(220.83 54.21) rotate(6.98)" xlink:href="#_&#xC1;&#xE5;&#xE7;&#xFB;&#xEC;&#xFF;&#xED;&#xED;&#xFB;&#xE9;_&#xE3;&#xF0;&#xE0;&#xE4;&#xE8;&#xE5;&#xED;&#xF2;_349"></linearGradient><linearGradient id="_&#xC1;&#xE5;&#xE7;&#xFB;&#xEC;&#xFF;&#xED;&#xED;&#xFB;&#xE9;_&#xE3;&#xF0;&#xE0;&#xE4;&#xE8;&#xE5;&#xED;&#xF2;_384-6" x1="16768.93" y1="1874.22" x2="16848.26" y2="1874.22" gradientTransform="translate(-14958.01 -1805.95) rotate(6.98)" xlink:href="#_&#xC1;&#xE5;&#xE7;&#xFB;&#xEC;&#xFF;&#xED;&#xED;&#xFB;&#xE9;_&#xE3;&#xF0;&#xE0;&#xE4;&#xE8;&#xE5;&#xED;&#xF2;_384"></linearGradient><linearGradient id="_&#xC1;&#xE5;&#xE7;&#xFB;&#xEC;&#xFF;&#xED;&#xED;&#xFB;&#xE9;_&#xE3;&#xF0;&#xE0;&#xE4;&#xE8;&#xE5;&#xED;&#xF2;_357-11" x1="1349.55" y1="2511.67" x2="1225.28" y2="2510.7" xlink:href="#_&#xC1;&#xE5;&#xE7;&#xFB;&#xEC;&#xFF;&#xED;&#xED;&#xFB;&#xE9;_&#xE3;&#xF0;&#xE0;&#xE4;&#xE8;&#xE5;&#xED;&#xF2;_357"></linearGradient><linearGradient id="_&#xC1;&#xE5;&#xE7;&#xFB;&#xEC;&#xFF;&#xED;&#xED;&#xFB;&#xE9;_&#xE3;&#xF0;&#xE0;&#xE4;&#xE8;&#xE5;&#xED;&#xF2;_357-12" x1="2753.54" y1="2497.27" x2="2913.42" y2="2443.39" gradientTransform="translate(4011) rotate(-180) scale(1 -1)" xlink:href="#_&#xC1;&#xE5;&#xE7;&#xFB;&#xEC;&#xFF;&#xED;&#xED;&#xFB;&#xE9;_&#xE3;&#xF0;&#xE0;&#xE4;&#xE8;&#xE5;&#xED;&#xF2;_357"></linearGradient><linearGradient id="_&#xC1;&#xE5;&#xE7;&#xFB;&#xEC;&#xFF;&#xED;&#xED;&#xFB;&#xE9;_&#xE3;&#xF0;&#xE0;&#xE4;&#xE8;&#xE5;&#xED;&#xF2;_379-8" x1="2676.04" y1="2150.68" x2="2782.82" y2="2194.23" gradientTransform="translate(4011) rotate(-180) scale(1 -1)" xlink:href="#_&#xC1;&#xE5;&#xE7;&#xFB;&#xEC;&#xFF;&#xED;&#xED;&#xFB;&#xE9;_&#xE3;&#xF0;&#xE0;&#xE4;&#xE8;&#xE5;&#xED;&#xF2;_379"></linearGradient><linearGradient id="_&#xC1;&#xE5;&#xE7;&#xFB;&#xEC;&#xFF;&#xED;&#xED;&#xFB;&#xE9;_&#xE3;&#xF0;&#xE0;&#xE4;&#xE8;&#xE5;&#xED;&#xF2;_384-7" x1="2731.98" y1="2208.44" x2="2895.37" y2="2184.61" gradientTransform="translate(4011) rotate(-180) scale(1 -1)" xlink:href="#_&#xC1;&#xE5;&#xE7;&#xFB;&#xEC;&#xFF;&#xED;&#xED;&#xFB;&#xE9;_&#xE3;&#xF0;&#xE0;&#xE4;&#xE8;&#xE5;&#xED;&#xF2;_384"></linearGradient><linearGradient id="_&#xC1;&#xE5;&#xE7;&#xFB;&#xEC;&#xFF;&#xED;&#xED;&#xFB;&#xE9;_&#xE3;&#xF0;&#xE0;&#xE4;&#xE8;&#xE5;&#xED;&#xF2;_379-9" x1="2839.88" y1="2223.78" x2="2911.93" y2="2199.95" gradientTransform="translate(4011) rotate(-180) scale(1 -1)" xlink:href="#_&#xC1;&#xE5;&#xE7;&#xFB;&#xEC;&#xFF;&#xED;&#xED;&#xFB;&#xE9;_&#xE3;&#xF0;&#xE0;&#xE4;&#xE8;&#xE5;&#xED;&#xF2;_379"></linearGradient></defs><g id="_&#xD1;&#xEB;&#xEE;&#xE9;_1"><path class="cls-7" d="m2621.68,39.36c-274.89,0-530.8,81.3-744.99,221.17-146.61,95.74-336.28,96.15-483.44,1.26-139.37-89.86-305.04-142.45-482.91-143.67C408.54,114.69-1.67,523.4,0,1025.23c.67,200.57,66.66,385.75,177.8,535.39,68.26,91.91,102.59,204.89,95.86,319.18-.21,3.57-.4,7.14-.58,10.71-34.4,690.62,538.22,1262.14,1228.78,1226.55,216.78-11.17,417.95-81.4,587.74-194.9,153.9-102.89,335.46-155.75,520.57-154.22,3.83.03,7.67.05,11.5.05,753.49,0,1364.32-610.83,1364.32-1364.32S3375.17,39.36,2621.68,39.36Z"></path><path class="cls-8" d="m1682.52,384.2l-35.06,18.11c-19.63-23.55-42.35-43.68-67.24-60.09l13.29-41.68c3.4-10.68-2.49-22.1-13.17-25.5l-112.8-35.96c-10.68-3.4-22.1,2.49-25.5,13.17l-12.5,39.19c-29.11-1.96-58.69.16-87.87,6.65l-21.73-42.07c-5.14-9.96-17.39-13.86-27.35-8.72l-105.19,54.33c-9.96,5.14-13.86,17.39-8.72,27.35l21.73,42.07c-20.88,18.87-38.82,40.26-53.57,63.46l-51.83-16.52c-10.68-3.4-22.1,2.49-25.5,13.17l-35.96,112.8c-3.4,10.68,2.49,22.1,13.17,25.5l51.82,16.52c-1.31,25.78.58,51.89,5.87,77.73l-53.92,27.85c-9.96,5.14-13.86,17.39-8.72,27.35l54.33,105.19c5.14,9.96,17.39,13.86,27.35,8.72l51.58-26.64c16.89,19.33,35.9,36.22,56.49,50.51l-19.06,59.79c-3.4,10.68,2.49,22.1,13.17,25.5l112.8,35.96c10.68,3.4,22.1-2.49,25.5-13.17l17.14-53.76c25.68,2.34,51.79,1.49,77.73-2.73l27.23,52.72c5.14,9.96,17.39,13.86,27.35,8.72l105.19-54.33c9.96-5.14,13.86-17.39,8.72-27.35l-23.11-44.75c21.91-17.65,40.95-37.94,56.92-60.15l39.76,12.68c16.26,5.18,33.64-3.79,38.82-20.05l32.74-102.7c3.4-10.68-2.49-22.1-13.17-25.5l-41.33-13.18c3.11-29,2.16-58.59-3.12-87.91l40.67-21.01c9.96-5.14,13.86-17.39,8.72-27.35l-54.33-105.19c-5.14-9.96-17.39-13.86-27.35-8.72Zm-202.64,354.68c-75.87,39.19-169.14,9.45-208.33-66.42-39.19-75.87-9.45-169.14,66.42-208.33,75.87-39.19,169.14-9.45,208.33,66.42,39.19,75.87,9.45,169.14-66.42,208.33Z"></path><path class="cls-4" d="m1996.19,160.83l-18.77-1.75c-1.83-14.53-5.79-28.49-11.57-41.5l16.09-13.35c4.12-3.42,4.69-9.53,1.27-13.65l-36.12-43.53c-3.42-4.12-9.53-4.69-13.65-1.27l-15.13,12.55c-11.21-8.29-23.66-15.06-37.07-19.96l2.1-22.53c.5-5.33-3.42-10.06-8.76-10.55L1818.24.04c-5.33-.5-10.06,3.42-10.55,8.76l-2.1,22.53c-13.26,2.21-25.99,6.2-37.9,11.73l-16.6-20c-3.42-4.12-9.53-4.69-13.65-1.27l-43.53,36.12c-4.12,3.42-4.69,9.53-1.27,13.65l16.6,20c-7.17,10.03-13.14,21.03-17.66,32.79l-28.87-2.69c-5.33-.5-10.06,3.42-10.55,8.76l-5.24,56.32c-.5,5.33,3.42,10.06,8.76,10.55l27.62,2.57c1.82,12.13,5.11,23.82,9.72,34.88l-23.08,19.15c-4.12,3.42-4.69,9.53-1.27,13.65l36.12,43.53c3.42,4.12,9.53,4.69,13.65,1.27l20.75-17.22c9.73,7.56,20.46,13.94,31.98,18.93l-2.63,28.23c-.5,5.33,3.42,10.06,8.76,10.55l56.32,5.24c5.33.5,10.06-3.42,10.55-8.76l2.23-23.96c13.36-1.46,26.25-4.72,38.4-9.54l12.73,15.34c5.21,6.27,14.51,7.14,20.79,1.93l39.63-32.89c4.12-3.42,4.69-9.53,1.27-13.65l-13.23-15.95c8.72-10.87,15.97-23.02,21.39-36.18l21.78,2.03c5.33.5,10.06-3.42,10.55-8.76l5.24-56.32c.5-5.33-3.42-10.06-8.76-10.55Zm-172.92,90.51c-40.63-3.78-70.5-39.77-66.72-80.4s39.77-70.5,80.4-66.72c40.63,3.78,70.5,39.77,66.72,80.4-3.78,40.63-39.77,70.5-80.4,66.72Z"></path><path class="cls-9" d="m2947.35,377.09l-57.38,20.53c-25.23-40.08-55.88-75.56-90.62-105.79l28.89-61.09c7.4-15.65.71-34.34-14.94-41.74l-165.32-78.18c-15.65-7.4-34.34-.71-41.74,14.94l-27.16,57.44c-44.16-8.97-89.89-11.78-135.9-7.83l-24.64-68.86c-5.83-16.3-23.78-24.79-40.08-18.95l-172.18,61.62c-16.3,5.83-24.79,23.78-18.95,40.08l24.64,68.86c-35.84,24.61-67.68,53.69-95.02,86.17l-75.96-35.92c-15.65-7.4-34.34-.71-41.74,14.94l-78.18,165.32c-7.4,15.65-.71,34.34,14.94,41.74l75.95,35.92c-7.3,39.2-9.76,79.56-6.95,120.2l-88.25,31.58c-16.3,5.83-24.79,23.78-18.95,40.08l61.62,172.18c5.83,16.3,23.78,24.79,40.08,18.95l84.42-30.21c21.89,33.05,47.53,62.81,76.13,88.91l-41.44,87.64c-7.4,15.65-.71,34.34,14.94,41.74l165.32,78.18c15.65,7.4,34.34.71,41.74-14.94l37.26-78.79c38.84,8.84,78.99,12.9,119.56,11.75l30.88,86.29c5.83,16.3,23.78,24.79,40.08,18.95l172.18-61.62c16.3-5.83,24.79-23.78,18.95-40.08l-26.21-73.25c37.16-22.54,70.48-49.69,99.48-80.42l58.27,27.56c23.83,11.27,52.27,1.09,63.54-22.74l71.18-150.52c7.4-15.65.71-34.34-14.94-41.74l-60.57-28.64c10.71-43.76,15.32-89.26,13.24-135.23l66.58-23.83c16.3-5.83,24.79-23.78,18.95-40.08l-61.62-172.18c-5.83-16.3-23.78-24.79-40.08-18.95Zm-382.95,501.47c-124.19,44.44-260.89-20.21-305.34-144.4-44.44-124.19,20.21-260.89,144.4-305.34,124.19-44.44,260.89,20.21,305.34,144.4,44.44,124.19-20.21,260.89-144.4,305.34Z"></path><path class="cls-18" d="m62.49,1245.34c-81.72,381.76,700.09,564.22,699.26,638.87-.83,74.65-401.11,25.1-320.19,227.26,74.99,187.3,699.15,260.26,1154.96,46.42,13.2-6.19,335.95-568.95,98.46-897.97-237.5-329.01-307.85,237.39-417.93,222.89-110.09-14.52,130.06-710.11-94.69-858.57-232.88-153.81-304.18,345.21-413.31,268.78-103.38-72.4-158.39-781.12-443.14-688.96-10.32,3.33-20.93,7.72-31.87,13.23l-.12.05v.02c-5.79,2.92-11.67,6.15-17.64,9.71-328.4,195.89,299.11,941.77,156.42,970.63-142.68,28.88-328.79-145.84-370.21,47.62Z"></path><path class="cls-22" d="m2708.22,2282.3c97.06-18,270.32-78.06,328.53-175.03,53.74-89.53-31.54-197.37,6.38-283.88,37.91-86.51,287.47-156.05,350.46-257.16,74.7-119.9-118.5-210.62-36.2-294.74,82.3-84.11,371.66-185.71,391.7-284.62,20.04-98.91-97.62-92.99-3.46-278.12,79.73-156.77,186.79-362.53,76.28-444.63-117.78-87.5-250.4,75.49-318.25,202.05-87.41,163.04-188.19-4.24-291.59,73.32-93.48,70.13-70.38,440.23-140.7,515.6-70.32,75.38-212.73,23.72-309.13,153.88-96.4,130.15,55.09,324.94,6.3,422.03s-198.26,64.21-268.2,202.08c-69.94,137.87,207.88,449.22,207.88,449.22Z"></path><path class="cls-15" d="m2730.76,2261.22c56.91,22.41,167.65,47.74,230.07,15.9,57.63-29.39,48.23-114.05,96.55-147.05,48.32-33,202.26,12.39,268.55-20.05,78.61-38.47,6.89-149.56,77.75-166.74,70.85-17.17,256.24,24.45,299.24-20.93,43-45.39-20.76-80.91,89.49-147.26,93.36-56.19,217.16-129.14,186.05-208.56-33.15-84.64-156.34-42.55-233.54,1.67-99.45,56.96-97.48-64.01-177.27-57.21-72.14,6.15-181.51,208.18-243.2,224.69-61.69,16.51-119.55-57.38-212.93-20.65-93.38,36.73-77.74,188.8-135.25,223.79-57.51,34.99-125.24-31.36-207.25,18.11-82.01,49.47-38.27,304.26-38.27,304.26Z"></path><path class="cls-16" d="m1181.2,2219.65s-285.4-641.73-556.24-992.34C354.12,876.7,122.88,789.49,122.88,789.49c0,0,132.12,155,240.04,373.59,107.93,218.59,172.5,458.65,314.15,665.42,214.28,312.8,504.13,391.15,504.13,391.15Z"></path><path class="cls-98" d="m1113.67,2236.76s-263.44-415.16-486.95-630.19c-223.51-215.04-392.58-251.72-392.58-251.72,0,0,107.38,93.8,204.54,234.11,97.15,140.31,166.48,299.94,285.78,428.61,180.46,194.65,389.22,219.2,389.22,219.2Z"></path><polygon class="cls-45" points="3957.21 1095.73 3654.43 1275.73 3666.95 1367.14 3731.24 1315.87 3957.21 1095.73"></polygon><polygon class="cls-85" points="3700.23 1298.8 3666.95 1367.14 3731.99 1315.14 3957.21 1095.73 3700.23 1298.8"></polygon><polygon class="cls-10" points="3654.43 1275.73 3654.43 1275.73 3957.21 1095.73 3558.77 1227.56 3654.43 1275.73"></polygon><polygon class="cls-10" points="3700.23 1298.8 3830.02 1364.15 3957.21 1095.73 3700.23 1298.8"></polygon><path class="cls-79" d="m3611.65,1419.88c-6.14,7.41-11.63,15.47-16.31,23.94l-10.9-6.02c5.05-9.15,10.98-17.86,17.62-25.87l9.59,7.95Zm-27.89,50.5c-3.03,9.19-5.21,18.69-6.47,28.25l-12.35-1.64c1.37-10.32,3.72-20.58,6.99-30.5l11.83,3.9Zm-7.58,57.19c.53,9.48,1.94,19.15,4.2,28.74l-12.12,2.85c-2.43-10.3-3.94-20.69-4.51-30.9l12.43-.69Zm13.12,56.52c3.61,8.85,7.96,17.7,12.94,26.29l-10.78,6.24c-5.27-9.09-9.88-18.45-13.7-27.83l11.53-4.7Zm53.83,70.87l-8.25,9.33c-8.01-7.09-16.59-13.6-23.17-18.49l7.42-10c6.78,5.03,15.63,11.76,24,19.16Zm21.56,22.82c7.22,9.62,12.06,19.42,14.39,29.12l-12.11,2.91c-1.96-8.16-5.97-16.19-12.24-24.56l9.96-7.47Zm13.11,62.2c-.53,1.67-1.13,3.36-1.78,5.02-3.5,8.83-8.38,16.64-14.5,23.21l-9.17-8.42.06-.06c5.06-5.44,9.11-11.94,12.04-19.32.55-1.38,1.04-2.78,1.48-4.17l11.88,3.74Zm-48.06,35.03l4.68,11.54c-9.27,3.76-19.74,6.15-31.14,7.11l-1.04-12.41c10.14-.85,19.39-2.95,27.5-6.24Z"></path><path class="cls-41" d="m3636.21,1380.61l7.23,10.14c-3.89,2.78-7.65,5.66-11.16,8.58l-7.95-9.59c3.75-3.1,7.74-6.18,11.88-9.13Z"></path><polygon class="cls-23" points="1995.87 808.42 1871.78 684.33 2025.36 578.74 2101.45 654.84 1995.87 808.42"></polygon><circle class="cls-61" cx="1866.78" cy="648.47" r="66.91"></circle><circle class="cls-91" cx="1802.49" cy="584.18" r="40.37"></circle><circle class="cls-69" cx="2092.49" cy="885.48" r="40.37"></circle><circle class="cls-46" cx="2147.37" cy="796.98" r="20.77"></circle><path class="cls-94" d="m1960.07,580.3c-5.99,5.99-15.71,5.99-21.71,0-5.99-5.99-5.99-15.71,0-21.71s15.71-5.99,21.71,0c5.99,5.99,5.99,15.71,0,21.71Z"></path><circle class="cls-28" cx="2022.66" cy="815.66" r="74.9"></circle><circle class="cls-56" cx="1914.82" cy="759.57" r="95.64"></circle><path class="cls-83" d="m2158.05,327.05s-45.82-48.55-116.94,10.26c-71.12,58.81-96.42,133.35-96.42,133.35l108.05-12.31,105.31-131.3Z"></path><path class="cls-21" d="m2353.15,522.15s48.55,45.82-10.26,116.94c-58.81,71.12-133.35,96.42-133.35,96.42l12.31-108.05,131.3-105.31Z"></path><path class="cls-86" d="m2417.18,455.16c122.82-161.74,100.94-293.08,100.94-293.08,0,0-131.34-21.89-293.08,100.93-161.74,122.82-211.6,262.67-211.6,262.67l70.53,70.53,70.53,70.53s139.85-49.86,262.67-211.6Z"></path><path class="cls-100" d="m2382.52,297.68c29.64,29.64,54.77,62.06,75.43,96.43,76.75-132.48,60.16-232.03,60.16-232.03,0,0-99.54-16.58-232.03,60.16,34.37,20.66,66.8,45.8,96.43,75.43Z"></path><circle class="cls-88" cx="2262.5" cy="417.7" r="114.22"></circle><circle class="cls-39" cx="2262.5" cy="417.7" r="96.36"></circle><rect class="cls-102" x="1973.94" y="591.97" width="199.5" height="29.09" transform="translate(1036.24 -1288.68) rotate(45)"></rect><polygon class="cls-57" points="230.62 462.26 537.85 644.92 525.15 737.66 459.92 685.65 230.62 462.26"></polygon><polygon class="cls-71" points="491.38 668.32 525.15 737.66 459.15 684.9 230.62 462.26 491.38 668.32"></polygon><polygon class="cls-10" points="537.85 644.92 537.85 644.92 230.62 462.26 634.92 596.03 537.85 644.92"></polygon><polygon class="cls-10" points="491.38 668.32 359.68 734.64 230.62 462.26 491.38 668.32"></polygon><path class="cls-76" d="m717.54,822.28l-1.41,10.16c4.58.64,9.18,1.16,13.69,1.56,3.68.33,7.43.55,11.14.65l.28-10.25c-3.5-.1-7.04-.3-10.51-.61-4.34-.38-8.78-.89-13.19-1.5Z"></path><path class="cls-66" d="m769.62,797.65c0-1.02.02-2.04.06-3.06l-10.25-.41c-.05,1.15-.07,2.31-.07,3.47,0,7.59.99,15.07,2.95,22.21l9.89-2.71c-1.72-6.26-2.59-12.82-2.59-19.5Z"></path><path class="cls-17" d="m667.8,821.7c7.97,2.42,16.02,4.54,23.93,6.31l2.24-10.01c-7.67-1.71-15.47-3.77-23.19-6.12l-2.98,9.81Z"></path><path class="cls-37" d="m621.59,804.13c7.51,3.44,15.18,6.65,22.8,9.56l3.65-9.59c-7.41-2.82-14.87-5.95-22.18-9.29l-4.27,9.32Z"></path><path class="cls-68" d="m537.85,752.18c6.32,5.14,12.94,10.17,19.66,14.94l5.94-8.36c-6.55-4.65-12.98-9.54-19.13-14.54l-6.47,7.96Z"></path><path class="cls-89" d="m783.83,751.52l-8.5-5.74c-4.76,7.05-8.56,14.82-11.28,23.11l9.74,3.2c2.43-7.39,5.81-14.31,10.04-20.57Z"></path><path class="cls-53" d="m578.08,780.79c6.96,4.31,14.15,8.47,21.38,12.35l4.85-9.04c-7.04-3.78-14.05-7.83-20.83-12.03l-5.41,8.72Z"></path><path class="cls-96" d="m788.16,819.28c-7.56,1.9-15.39,3.3-23.28,4.16l1.11,10.2c8.36-.91,16.66-2.39,24.68-4.41l-2.51-9.95Z"></path><path class="cls-1" d="m811.48,876.65c7.5,3.84,15.51,6.88,23.8,9.02l2.57-9.93c-7.56-1.96-14.86-4.72-21.69-8.22l-4.68,9.13Z"></path><path class="cls-29" d="m858.17,766.79c-1.15,6.37-4.43,12.79-9.75,19.08l7.84,6.62c6.49-7.68,10.52-15.71,12-23.87l-10.09-1.83Z"></path><path class="cls-25" d="m907.75,874.54l2.39,9.97c7.77-1.87,15.8-4.26,23.87-7.11l-3.42-9.67c-7.73,2.73-15.41,5.02-22.84,6.8Z"></path><path class="cls-107" d="m860.9,879.28l-.58,10.24c2.67.15,5.41.23,8.15.23,5.52,0,11.25-.31,17.02-.92l-1.09-10.2c-8.08.86-16.01,1.08-23.51.66Z"></path><path class="cls-14" d="m781.59,837.75l-8.55,5.67c4.62,6.96,10.4,13.4,17.19,19.15l6.62-7.83c-6.05-5.12-11.19-10.83-15.27-16.99Z"></path><path class="cls-47" d="m974.25,848.03c-7.11,3.89-14.33,7.5-21.46,10.74l4.24,9.34c7.36-3.34,14.82-7.07,22.15-11.08l-4.93-9Z"></path><path class="cls-84" d="m863.15,741.68c-3.15-5.27-7.61-10.28-13.25-14.91-1.78-1.46-3.63-2.79-5.51-3.95l-5.4,8.72c1.49.92,2.97,1.98,4.4,3.15,4.72,3.87,8.41,7.99,10.95,12.24l8.8-5.26Z"></path><path class="cls-11" d="m817.87,716.63c-8.37.91-16.92,4.45-24.73,10.22l6.1,8.25c6.35-4.7,13.17-7.56,19.74-8.27l-1.11-10.2Z"></path><path class="cls-73" d="m836.86,809.41l-5.69-8.54c-6.16,4.1-13.1,7.79-20.64,10.97l3.98,9.45c8.13-3.43,15.65-7.43,22.35-11.88Z"></path><path class="cls-77" d="m1000.58,844.25l-5.59-8.6c6.07-3.95,9.56-6.54,9.59-6.57l6.14,8.22c-.15.11-3.76,2.8-10.14,6.95Z"></path><path class="cls-42" d="m994.61,1259.18c72.57-53.15,159.8-81.87,251.46-81.87,114,0,221.17,44.39,301.78,125l66.97,66.97,13.03-181.48,181.45-13.03-66.95-66.95c-132.56-132.56-308.8-205.56-496.27-205.56-160.7,0-313.12,53.69-436.87,152.5l4.35,182.68,181.06,21.74Z"></path><path class="cls-72" d="m3338.43,1107.82c-18.93-18.93-38.78-36.6-59.39-53.06l-4.35,182.68-181.06,21.74c17.69,12.95,34.52,27.34,50.31,43.13,80.61,80.61,125,187.78,125,301.78,0,106.15-38.51,206.38-108.9,284.76l4.34,182.12,181.47,21.79c127.83-131.66,198.14-304.75,198.14-488.67s-73-363.71-205.56-496.27Z"></path><path class="cls-51" d="m3160.03,1888.84c-5.2,5.79-10.56,11.47-16.1,17.02-80.61,80.61-187.78,125-301.77,125s-221.17-44.39-301.78-125l-3.91-3.91-181.47,13.03-13.03,181.46,3.91,3.91c132.56,132.56,308.8,205.56,496.27,205.56s363.71-73,496.27-205.56c2.51-2.51,4.95-5.06,7.42-7.6l-181.47-21.79-4.34-182.12Z"></path><path class="cls-50" d="m2473.42,1369.28l66.96-66.96c80.61-80.61,187.78-125,301.78-125,91.66,0,178.89,28.72,251.46,81.87l181.06-21.74,4.35-182.68c-123.76-98.81-276.18-152.5-436.88-152.5-187.47,0-363.71,73-496.27,205.56l-66.95,66.95,181.45,13.03,13.03,181.48Z"></path><polygon class="cls-49" points="2460.39 1187.8 2278.93 1174.77 2044.11 1409.59 1849.62 1604.09 1551.75 1901.96 1733.22 1914.99 1746.25 2096.44 2044.11 1798.58 2238.61 1604.09 2473.42 1369.28 2460.39 1187.8"></polygon><path class="cls-32" d="m928.19,1888.85c-70.39-78.38-108.9-178.61-108.9-284.76,0-114,44.39-221.17,125-301.77,15.8-15.8,32.63-30.18,50.31-43.13l-181.06-21.74-4.35-182.68c-20.62,16.46-40.46,34.13-59.39,53.06-132.56,132.56-205.56,308.8-205.56,496.27s70.31,357.01,198.14,488.67l181.47-21.79,4.34-182.12Z"></path><path class="cls-52" d="m1551.75,1901.96l-3.91,3.91c-80.61,80.61-187.78,125-301.78,125s-221.17-44.39-301.77-125c-5.54-5.54-10.9-11.23-16.1-17.02l-4.34,182.12-181.47,21.79c2.47,2.54,4.91,5.09,7.42,7.6,132.56,132.56,308.8,205.56,496.27,205.56s363.71-73,496.27-205.56l3.91-3.92-13.03-181.46-181.47-13.03Z"></path><polygon class="cls-82" points="2238.61 1604.09 2044.11 1409.59 1809.29 1174.77 1627.84 1187.8 1614.81 1369.28 1849.62 1604.09 2044.11 1798.58 2341.98 2096.44 2355 1914.99 2536.48 1901.96 2238.61 1604.09"></polygon><polygon class="cls-110" points="2713.87 680.86 2747.08 679.08 2743.66 615.54 2723.37 616.63 2713.87 680.86"></polygon><path class="cls-40" d="m2684.19,586.48c-4.21,26.38,1.35,52.46,17.4,57.32,15.06,4.56,39.93-10.97,50.27-37.39,10.89-27.81,3.77-47.77-18.51-54.15-23.66-6.78-44.55,5.3-49.16,34.22Z"></path><path class="cls-93" d="m2744.11,623.81l-3.58-1.25s.7-12.41-1.72-15.46c-3.11-3.91-17.61-2.7-17.61-2.7,0,0-1.3-13.75-6.99-17.15-5.05-3.02-25.39-4.16-33.02.33,0,0-4.2-13.02,1.1-25.22,5.84-13.45,17.44-18.23,32.17-19.75,14.72-1.53,30.61.19,34.78,16.52,0,0,12.78,2.07,13.71,19.49.94,17.42-18.84,45.19-18.84,45.19Z"></path><path class="cls-40" d="m2727.19,602.19c-1.72,4.47-.1,9.26,3.63,10.7,3.73,1.44,8.14-1.03,9.87-5.5,1.72-4.47.1-9.26-3.63-10.7-3.73-1.44-8.14,1.03-9.87,5.5Z"></path><path class="cls-110" d="m2464.51,1090.85l45.47-163.12c1.53-5.44,5.9-9.94,11.79-11.34l2.21-.53,180.58-42.92,28.76-6.84,10.72,61.73-29.39,3.26-175.07,19.43-61.53,145.07-2.81,6.62-12.68-4.43,1.93-6.93Z"></path><path class="cls-40" d="m2526.63,925.84l2.31-.52,175.44-39.12,28.86-6.44,9.75,62.01-29.44,2.73-110.97,10.3,83.76,37.08,6.58,2.91-4.58,12.58-6.91-2-155.87-45.14c-6.01-1.76-10.94-6.65-12.4-13.2-2.14-9.58,3.9-19.07,13.47-21.21Z"></path><path class="cls-44" d="m2674.74,860.35c-31.34,26.76-144.32,29.47-167.27,52.77-23.69,24.05-39.37,149.7-39.37,149.7l26.32,9.19s43.11-117.5,50.19-122.29c7.15-4.84,159.61,10.2,198.42-13.3,32.16-19.47,18.01-71.93,18.01-71.93l-86.29-4.14Z"></path><path class="cls-48" d="m2688.41,861c-22.55,32.74-171.1,35.16-180.62,70.68-10.39,38.78,152.21,72.65,152.21,72.65l8.36-26.2s-60.5-19.29-59.38-22.55c1.04-3.04,109.27,10.9,147.72-18.51,29.86-22.84,18.01-71.93,18.01-71.93l-86.29-4.14Z"></path><path class="cls-110" d="m2719.45,708.55l-32.45,122.95,11.36-8.18-91.96-.94-8.49-.09-.68,16.44,8.47.61,91.73,6.63c5.14.37,9.7-2.88,11.18-7.6l.18-.59,38.05-121.34,4.26-13.6-28.01-8.08-3.64,13.78Z"></path><path class="cls-3" d="m2762.56,715.19c-.38,30.05-24.44,105.36-57.18,129.46-19.44,14.31-80.61-.81-80.61-.81l-.93-23.76s46.07,7.19,58.58-18.13c12.52-25.31,23.52-92.84,39.68-102.45,14.24-8.47,40.63,2.18,40.46,15.68Z"></path><path class="cls-27" d="m2746.39,672.13s-18.16,14.44-35.1,3.42c0,0-9.02,63.38-18.07,88.99-9.05,25.6-35.26,92.76-35.26,92.76l126.71,6.08c6.18-57.97-12.61-125.05-38.28-191.25Z"></path><path class="cls-54" d="m2751.31,666.53s56.21,93.48,39.24,189.5c0,0,4.29,19.23-64.3,13.34-68.59-5.89-72.07-15.56-72.07-15.56,24.24-50.8,43.96-108.67,55.74-178.92,0,0,25.65,2.18,41.38-8.35Z"></path><path class="cls-110" d="m2561.72,824.79c-.38,5.83,7.87,13.52,20.09,15.83,11.27,2.13,19.52-3.46,20.25-9.31,1.63-13.07-39.76-15.53-40.35-6.52Z"></path><path class="cls-110" d="m2571.64,814.44c1.12-2.31,8.15-2.52,16.44.58,7.64,2.86,11.56,7.63,10.65,10.07-2.03,5.43-28.83-7.07-27.09-10.65Z"></path><path class="cls-43" d="m2717.98,673.7s-4.12,55.92-18.84,115.98c-14.71,60.06-34.59,99.13-34.59,99.13,0,0,118.85,13.01,140.99-15.44,19.95-25.63-23.78-175.82-49.75-209.59l-37.81,9.92Z"></path><path class="cls-93" d="m2677.29,1071.55l1.54-12.67h0s-3.56-49.12-3.56-49.12l.35.11s7.69,1.77,11.9-6.91c3.1-6.4,2.64-11.31,2.19-13.45-.27-.56-.39-.99-.32-1.19.9-2.93,6.42-3.84,12.34-2.03,1.94.59,3.68,1.41,5.11,2.34l8.22,2.52-26.78,87.48-8.32-2.55c-1.93-.59-3.09-2.56-2.67-4.53Z"></path><path class="cls-93" d="m2401.4,1104.1l12.66-1.57h0s46.8-15.35,46.8-15.35l-.02.37s.14,7.89,9.59,9.87c6.96,1.46,11.61-.17,13.58-1.13.48-.39.86-.61,1.07-.6,3.06.16,5.28,5.3,4.96,11.48-.11,2.03-.48,3.91-1.03,5.53l-.45,8.58-91.37-4.78.46-8.69c.11-2.02,1.73-3.62,3.75-3.69Z"></path><rect class="cls-34" x="2507.21" y="848" width="110.3" height="10.1" transform="translate(43.86 -121.91) rotate(2.75)"></rect><polygon class="cls-20" points="2578.78 858.89 2506.95 855.44 2499.57 783.89 2571.4 787.34 2578.78 858.89"></polygon><path class="cls-70" d="m2540.73,811.4c-.13,2.71-2.89,4.78-6.17,4.62-3.28-.16-5.83-2.48-5.7-5.19.13-2.71,2.89-4.78,6.17-4.62,3.28.16,5.83,2.48,5.7,5.19Z"></path><path class="cls-40" d="m2723.91,709.07l-8.19,129.03,9.56-10.23-91.92,17.14-8.35,1.56,2.52,16.26,8.43-1.05,92.8-11.51c5.12-.63,8.96-4.72,9.49-9.63l.06-.6,13.99-128.53,1.54-14.17-29.03-2.5-.9,14.22Z"></path><path class="cls-40" d="m2590.67,857.8c.9,5.77,10.63,11.48,23.06,11.07,11.47-.37,18.3-7.64,17.74-13.5-1.26-13.11-42.19-6.49-40.8,2.43Z"></path><path class="cls-40" d="m2598.1,845.54c.59-2.5,7.41-4.23,16.17-3.02,8.08,1.12,12.94,4.93,12.59,7.5-.79,5.74-29.68-.62-28.76-4.49Z"></path><path class="cls-63" d="m2767.99,707.18c7.53,29.62-5.07,110.44-32.97,140.93-16.57,18.11-79.11,14.56-79.11,14.56l-5.62-23.52s46.47,1.82,53.96-25.9c7.49-27.72,6.34-105.63,20.57-118.4,12.53-11.25,39.11-3.67,43.17,12.33Z"></path><polygon class="cls-110" points="1410.08 691.61 1379.59 683.22 1395.63 624.91 1414.26 630.03 1410.08 691.61"></polygon><path class="cls-40" d="m1456.74,609.96c-1.43,25.35-11.88,48.44-27.77,49.7-14.91,1.18-34.86-18.28-39.11-44.9-4.48-28.03,6.18-45.13,28.15-46.54,23.35-1.5,40.29,13.94,38.73,41.74Z"></path><path class="cls-93" d="m1415.68,609.04c4.9-9.25,14.61-11.66,21.97-12.49,7.36-.83,19.28,2.45,20.74-2.85,1.46-5.3-1.56-24.96-31.64-30.09-27.24-4.64-44.27,10.63-51.06,30.15-5.94,17.07,4.07,36.7,17.68,34.05,13.6-2.64,16.38-7.58,22.32-18.78Z"></path><path class="cls-40" d="m1414.26,617.2c.65,4.51-1.86,8.6-5.62,9.15-3.76.54-7.33-2.67-7.99-7.18s1.86-8.6,5.62-9.15,7.33,2.67,7.99,7.18Z"></path><path class="cls-93" d="m1425.54,537.68c4.51,11.61-1.79,29.99-16.2,35.6-14.41,5.6-31.48-3.69-35.99-15.3-4.51-11.61,6.09-18.93,20.51-24.53,14.41-5.6,27.18-7.37,31.69,4.24Z"></path><path class="cls-110" d="m1556.18,831.86c-.27,5.54-8.89,11.91-20.69,12.77-10.87.79-18.06-5.39-18.12-10.99-.12-12.51,39.22-10.35,38.81-1.78Z"></path><path class="cls-110" d="m1568.88,893.12l-2.19-.41-157.11-29.06-27.64-5.11-6.88,59.51,28.08,1.33,136.29,6.45-55.16,132.53-2.63,6.31,11.5,5.64,3.38-5.94,83.65-146.96c.87-1.54,1.54-3.3,1.88-5.14,1.65-8.92-4.24-17.49-13.17-19.15Z"></path><path class="cls-110" d="m1584.1,901.34l-1.99-.37-174.3-32.09-27.64-5.09-7.18,59.1,28.05,1.68,162.64,9.74,8.92,167.88.36,6.83,12.88.04.41-6.82,11.01-184.11c.49-8-5.06-15.3-13.15-16.79Z"></path><path class="cls-75" d="m1430.23,849.78c19.92,32.11,138.33,21.01,155.4,44.58,22.76,31.45-70.77,153-70.77,153l-31.13-17.38s47.68-85.98,45.76-92.15c-2.44-7.83-132.39,10.73-167.56-18.95-27.31-23.05-13.82-69.11-13.82-69.11h82.11Z"></path><path class="cls-35" d="m1420.96,849.78c17.38,39.45,158.63,24.87,178.66,59.27,16.16,27.74-.44,168.6-.44,168.6l-37.37-1.02s.2-119.92-7.11-128.06c-5.38-5.98-155.34,7.84-192.76-18.94-32.04-22.92-13.82-79.85-13.82-79.85h72.84Z"></path><path class="cls-110" d="m1414.28,704.38l21.23,121.04-10.1-8.66,88.63,6.58,8.05.6-.68,15.63-8.07-.11-88.87-1.17c-4.9-.06-8.96-3.52-9.98-8.1l-.12-.56-26.66-119.96-2.94-13.22,27.17-5.4,2.34,13.34Z"></path><path class="cls-60" d="m1372.45,707.2c-2.1,28.97,16.64,104.23,46.18,130.12,17.55,15.37,75.97,5.05,75.97,5.05l2.85-22.81s-43.71,6.58-53.69-18.82c-9.98-25.4-16.29-94.76-31.07-105.33-13.02-9.32-39.3-1.22-40.24,11.79Z"></path><path class="cls-101" d="m1386.56,680.4s16.1,15.07,33,5.93c0,0,3.7,60.74,10.31,85.69,6.61,24.95,26.31,90.57,26.31,90.57l-120.51-3.93c-1.42-55.39,21.52-117.51,50.9-178.26Z"></path><path class="cls-78" d="m1380.99,675.25s-60.4,84.26-51.67,176.53c0,0-5.54,17.89,59.9,17.56,65.43-.33,69.47-9.23,69.47-9.23-19.08-49.98-33.33-106.31-39.13-173.77,0,0-24.46.1-38.57-11.08Z"></path><path class="cls-40" d="m1400.42,723.25c-8.82,13.8-17.42,28.22-25.37,42.66-3.97,7.24-7.79,14.54-11.32,21.87-3.51,7.32-6.76,14.75-9.17,21.96-.59,1.81-1.09,3.53-1.55,5.3l-1.37,5.86c-.84,3.98-1.66,7.98-2.39,12.05-1.47,8.12-2.77,16.34-3.96,24.6-2.35,16.51-4.36,33.22-6.06,49.82l-.82,8.03-15.64-1.08.36-8.06c.76-17.02,1.83-33.89,3.26-50.87.74-8.49,1.58-16.98,2.63-25.53.52-4.27,1.14-8.57,1.8-12.88l1.14-6.53c.47-2.34,1.03-4.7,1.63-6.93,2.47-8.93,5.63-17.13,8.97-25.19,3.36-8.05,6.97-15.88,10.71-23.63,7.53-15.51,15.44-30.49,24.01-45.57l6.7-11.78,23.71,14.49-7.29,11.41Z"></path><path class="cls-81" d="m1373.23,694.47c-21.66,19.36-35.64,64.86-46.15,102.71s-5.9,96.23-5.9,96.23l23.76,2.1s3.96-59.03,14.46-84.22c10.5-25.19,54.2-79.41,50.94-97.29-2.87-15.75-27.39-28.22-37.12-19.52Z"></path><path class="cls-40" d="m1322.37,961.96c-5.39-1.33-9.34-14.25-7-30.57,2.15-15.04,10.18-23.81,15.71-22.92,12.36,2-.38,55.54-8.71,53.48Z"></path><path class="cls-40" d="m1338.28,941.19c2.41-.37,4.58-6.69,4.09-15.09-.45-7.74-3.68-12.64-6.15-12.5-5.5.31-1.68,28.16,2.05,27.59Z"></path><path class="cls-93" d="m1635.39,1116.08l-9.78-1.74h0s-35.76-13.84-35.76-13.84v.29s-.43,6.13-7.86,7.28c-5.47.85-9.02-.61-10.51-1.44-.35-.33-.65-.51-.81-.51-2.39,0-4.32,3.91-4.32,8.72,0,1.58.21,3.06.58,4.34v6.69h71.24v-6.78c0-1.57-1.2-2.88-2.76-3.02Z"></path><path class="cls-93" d="m1525.47,1106.56l-6.64-7.39h0s-19.66-32.92-19.66-32.92l-.18.23s-4.11,4.56-10.68.9c-4.84-2.7-6.74-6.03-7.4-7.6-.08-.47-.2-.8-.32-.9-1.88-1.47-5.81.42-8.78,4.21-.97,1.25-1.72,2.54-2.22,3.78l-4.12,5.27,56.14,43.85,4.17-5.34c.97-1.24.83-3.01-.32-4.08Z"></path><path class="cls-110" d="m1546.31,821.94c-.69-2.34-7.25-3.62-15.51-2-7.61,1.5-12.02,5.37-11.55,7.79,1.06,5.41,28.13-2.18,27.05-5.79Z"></path><path class="cls-90" d="m1612.04,752.63h0c-2.88-.91-5.94.69-6.85,3.56l-21.38,67.63h-64.09c-3.02,0-5.46,2.44-5.46,5.46s2.44,5.46,5.46,5.46h68.18c2.76,0,5.04-2.05,5.4-4.71l22.3-70.55c.91-2.88-.69-5.94-3.56-6.85Z"></path><polygon class="cls-10" points="1583.81 823.81 1587.2 823.81 1607.97 757.32 1604.83 757.32 1583.81 823.81"></polygon><path class="cls-80" d="m1482.84,161.47v29.58l-62.41,31.5,62.41,31.52v29.35l-93.98-48.54v-24.9l93.98-48.52Z"></path><path class="cls-24" d="m1515.25,318.47h-27.85l103.37-180.76h27.6l-103.12,180.76Z"></path><path class="cls-13" d="m1636.48,283.43v-29.67l62.41-31.3-62.41-31.53v-29.45l93.98,48.55v25.08l-93.98,48.33Z"></path><path class="cls-99" d="m3346.82,767.36c10.97,5.7,16.45,16.35,16.45,31.95v48.26c0,7.48.56,12.3,1.67,14.44,1.12,2.14,4.3,3.21,9.56,3.21l4.95-.13v15.78c-2.85,0-7,.13-12.44.4-3.03.18-4.91.27-5.62.27-10.97,0-18.95-2.74-23.94-8.22-5-5.48-7.49-14.9-7.49-28.26v-49.7c0-7.48-1.23-12.76-3.68-15.83-2.45-3.07-6.27-5.1-11.44-6.08v-14.58c10.08-1.43,15.12-7.84,15.12-19.24v-49.83c0-13.36,2.49-22.78,7.49-28.26,4.99-5.48,12.97-8.22,23.94-8.22.71,0,2.59.09,5.62.27,4.28.18,8.43.31,12.44.4v15.78l-4.01-.13c-5.35,0-8.72.91-10.1,2.74-1.38,1.82-2.07,6.79-2.07,14.88v48.32c0,5.34-.83,10.86-2.48,16.55-1.65,5.7-6.31,10.77-13.98,15.22Z"></path><path class="cls-109" d="m3505.01,767.36c-10.97-5.7-16.45-16.33-16.45-31.91v-48.19c0-7.47-.56-12.28-1.67-14.42-1.12-2.14-4.3-3.2-9.56-3.2l-4.95.13v-15.78c2.68,0,6.82-.13,12.44-.4,3.03-.18,4.95-.27,5.75-.27,11.77,0,19.93,2.94,24.48,8.82,4.55,5.88,6.82,15.1,6.82,27.65v49.7c0,8.64,1.63,14.34,4.88,17.1,3.25,2.76,6.67,4.36,10.23,4.81v14.58c-10.08,1.43-15.12,7.84-15.12,19.24v49.83c0,13.36-2.5,22.78-7.49,28.26-5,5.48-12.98,8.22-23.94,8.22-.71,0-2.59-.09-5.62-.27-4.19-.18-8.34-.31-12.44-.4v-15.78l4.15.13c5.35,0,8.7-.91,10.03-2.74,1.34-1.83,2.01-6.8,2.01-14.9v-48.39c0-5.44.85-11.01,2.54-16.71,1.69-5.7,6.33-10.74,13.91-15.1Z"></path><path class="cls-110" d="m2858.45,1940.83l-50.52,153.76,14.8-9.39-116.77-8.15-10.6-.74-2.06,20.5,10.54,1.38,116.06,15.25c6.4.84,12.34-2.9,14.53-8.68l.27-.71,57.39-151.33,6.33-16.68-34.39-12.16-5.57,16.95Z"></path><path class="cls-110" d="m2632.09,2081.7c-.28,7.3,14.63,17.01,36.13,20.01,19.82,2.76,33.84-4.2,34.73-11.53,1.98-16.38-70.43-19.77-70.86-8.48Z"></path><path class="cls-6" d="m2650.41,1893.25c-.22,2.56-.52,5.11-.91,7.63-4.24,28-18.33,53.21-40.2,71.61-23.84,20.06-54.06,29.64-85.11,26.97-31.04-2.67-59.19-17.27-79.25-41.11-18.4-21.87-27.98-49.11-27.38-77.43.05-2.55.19-5.11.41-7.67.87-10.12,3.01-19.93,6.32-29.25,1.44-4.05,3.1-8,4.97-11.85,3.22-6.61,7.06-12.91,11.5-18.81,5.29-7.04,11.41-13.53,18.32-19.34,23.84-20.06,54.06-29.64,85.11-26.97,31.04,2.67,59.19,17.27,79.25,41.11,5.81,6.91,10.74,14.35,14.75,22.18,3.37,6.58,6.08,13.44,8.12,20.5,1.18,4.11,2.15,8.29,2.87,12.52,1.67,9.75,2.1,19.78,1.23,29.9Z"></path><path class="cls-5" d="m2646.31,1850.83l-217.04-18.67c3.22-6.61,7.06-12.91,11.5-18.81l197.42,16.98c3.37,6.58,6.08,13.44,8.12,20.5Z"></path><path class="cls-5" d="m2650.41,1893.25c-.22,2.56-.52,5.11-.91,7.63l-231.94-19.95c.05-2.55.19-5.11.41-7.67.87-10.12,3.01-19.93,6.32-29.25l224.88,19.35c1.67,9.75,2.1,19.78,1.23,29.9Z"></path><path class="cls-64" d="m2749.59,2197.14c-9.67,18.57-29.2,29.89-50.13,29.04-28.24-51.42-56.7-103.45-85.38-155.97-2.77-5.06-5.54-10.13-8.31-15.21-1.96-3.6-3.93-7.2-5.9-10.81-2.76-5.07-5.53-10.14-8.3-15.21-5.58-10.23-11.17-20.48-16.77-30.74l39.07-22.63c6.12,9.96,12.22,19.91,18.32,29.84,3.03,4.92,6.05,9.85,9.07,14.77,2.15,3.5,4.29,7,6.44,10.49,3.02,4.93,6.04,9.85,9.06,14.77,31.29,51,62.26,101.58,92.82,151.65Z"></path><path class="cls-106" d="m2648.52,1817.02c-36.55-63.1-117.34-84.62-180.44-48.07-63.1,36.55-84.62,117.34-48.07,180.44,36.55,63.1,117.34,84.62,180.44,48.07,63.1-36.55,84.62-117.34,48.07-180.44Zm-63.5,153.8c-11.84,6.86-24.65,11.19-38.08,12.88-12.99,1.63-26.02.74-38.74-2.65-12.72-3.39-24.47-9.1-34.92-16.97-10.81-8.14-19.77-18.27-26.62-30.11-6.86-11.84-11.19-24.65-12.88-38.08-1.63-12.99-.74-26.02,2.65-38.74,3.39-12.72,9.1-24.47,16.97-34.92,8.14-10.81,18.27-19.77,30.11-26.62,11.84-6.86,24.65-11.19,38.08-12.88,12.99-1.63,26.02-.74,38.74,2.65,12.72,3.39,24.47,9.1,34.92,16.97,10.81,8.14,19.77,18.27,26.62,30.11,6.86,11.84,11.19,24.65,12.88,38.08,1.63,12.99.74,26.02-2.65,38.74-3.39,12.72-9.1,24.47-16.97,34.92-8.14,10.81-18.27,19.77-30.11,26.62Z"></path><path class="cls-104" d="m2641.27,2020.22l-41.39,23.98c-2.76-5.07-5.53-10.14-8.3-15.21l40.62-23.53c3.03,4.92,6.05,9.85,9.07,14.77Z"></path><path class="cls-97" d="m2656.77,2045.48l-42.68,24.73c-2.77-5.06-5.54-10.13-8.31-15.21l41.93-24.29c3.02,4.93,6.04,9.85,9.06,14.77Z"></path><path class="cls-110" d="m2664.18,2069.14c1.35-2.92,10.14-3.35,20.59.32,9.63,3.39,14.65,9.27,13.58,12.34-2.4,6.85-36.25-8.14-34.17-12.66Z"></path><path class="cls-38" d="m2751.96,2072.71l-4.18,65.02s73.18-4.31,96.96-33.13c33.36-40.43,76.81-155.39,40.25-172.85-40.61-19.39-42.92,79.87-73.02,124.65-12.91,19.2-60.01,16.31-60.01,16.31Z"></path><path class="cls-93" d="m2843.21,1785.58c31.94-22.89,70.39-7.29,75.5,25.76,6.63,42.9-1.75,77.44,8.91,105.89,16.52,44.11,11.94,87.45,11.94,87.45-43.58-59.4-88.62-34.81-113.48-94.49-7.99-19.17-13.47-102.68,17.13-124.61Z"></path><polygon class="cls-110" points="2855.92 1930.08 2894.05 1930.08 2894.05 1857.14 2870.75 1857.14 2855.92 1930.08"></polygon><path class="cls-40" d="m2827.76,1820.21c-6.44,29.94-1.68,60.13,16.39,66.68,16.96,6.14,46.38-10.1,59.84-39.7,14.17-31.16,7.25-54.45-17.85-63.13-26.67-9.21-51.32,3.33-58.38,36.15Z"></path><polygon class="cls-110" points="2777.19 2549.39 2802.82 2363.76 2829.85 2178.36 2834.74 2144.81 2905.36 2160.05 2895.98 2192.63 2844.2 2372.56 2793.3 2552.75 2791.06 2560.69 2776.06 2557.56 2777.19 2549.39"></polygon><path class="cls-110" d="m2932.16,2144.81l1.18,33.88,6.84,197.01,86.07,128.31,4.6,6.86-11.92,9.41-5.6-6.06-109.96-119.04c-1.98-2.14-3.38-4.86-3.89-7.96l-.47-2.85-32.99-198.95-5.55-33.44,71.69-7.16Z"></path><polygon class="cls-87" points="2919.18 2138.56 2819.17 2138.56 2776.02 2486.59 2834.22 2495.06 2919.18 2138.56"></polygon><path class="cls-55" d="m2946.64,2138.56h-96.09s17.6,222.45,31.94,248.6c17.19,31.35,85.24,104.1,85.24,104.1l46.22-35.7s-48.68-68.92-60.44-101.28c-11.77-32.36-6.86-215.72-6.86-215.72Z"></path><path class="cls-27" d="m2894.97,1923.88s-20.56,18.02-41.12,6.01c0,0-7.03,75.1-16.23,105.74-9.2,30.64-33.08,108.57-33.08,108.57l146.29,2.58c3.99-68.57-21.91-146.45-55.86-222.9Z"></path><path class="cls-40" d="m2880.17,1973.32c9.58,17.9,18.83,36.55,27.28,55.15,4.21,9.33,8.24,18.71,11.89,28.12,3.63,9.39,6.95,18.88,9.23,28.02.56,2.29,1.02,4.47,1.41,6.7l1.14,7.37c.66,5,1.28,10.02,1.8,15.12,1.04,10.17,1.85,20.46,2.54,30.78,1.32,20.63,2.22,41.47,2.72,62.15l.25,10,19.43.16.32-10c.68-21.11.98-42.05.83-63.18-.1-10.56-.33-21.14-.81-31.8-.23-5.33-.59-10.7-.99-16.09l-.79-8.18c-.36-2.94-.82-5.9-1.36-8.72-2.2-11.27-5.31-21.71-8.68-32-3.39-10.27-7.1-20.3-10.98-30.23-7.83-19.89-16.17-39.16-25.32-58.61l-7.15-15.2-30.69,15.64,7.92,14.8Z"></path><path class="cls-95" d="m2900.12,1915.13s71.43,106.83,56.89,220.79c0,0,6.14,22.38-74.92,19.33-81.05-3.05-85.69-14.24-85.69-14.24,25.66-61.15,45.59-130.37,55.49-213.7,0,0,30.3,1.11,48.23-12.17Z"></path><path class="cls-105" d="m2907.82,2160.04l62.45,7.73s-2.47-71.01-11.73-111.66c-11.64-51.11-33.36-127.25-72.53-116.88-51.19,13.55,23.07,116.13,28.43,144.25,4.33,22.72-6.62,76.57-6.62,76.57Z"></path><path class="cls-40" d="m2959.29,2273.51c6.67-1.69,11.48-17.73,8.48-37.93-2.76-18.63-12.77-29.45-19.63-28.3-15.31,2.56.83,68.84,11.14,66.24Z"></path><path class="cls-40" d="m2939.43,2247.87c-2.99-.44-5.72-8.27-5.17-18.68.5-9.6,4.48-15.69,7.54-15.53,6.82.35,2.26,34.9-2.37,34.21Z"></path><path class="cls-93" d="m2718.61,2567.32l11.8-2.1h0s43.13-16.69,43.13-16.69v.35s.52,7.39,9.48,8.78c6.6,1.03,10.88-.73,12.68-1.73.43-.39.78-.62.98-.62,2.88,0,5.22,4.71,5.22,10.52,0,1.91-.26,3.69-.7,5.24v8.07h-85.92v-8.17c0-1.9,1.45-3.48,3.33-3.65Z"></path><path class="cls-93" d="m2982.21,2566.25l7.31-9.49h0s20.65-41.38,20.65-41.38l.23.26s5.36,5.11,12.92.11c5.57-3.69,7.55-7.87,8.21-9.82.05-.58.16-.98.31-1.11,2.13-1.94,7.03-.03,10.94,4.27,1.28,1.41,2.3,2.9,3.01,4.34l5.43,5.97-63.53,57.84-5.5-6.04c-1.28-1.4-1.27-3.55.01-4.94Z"></path><path class="cls-93" d="m2877.47,1775.91c8.67,0,14.61.78,22,4.6,11.87,6.15,27.53,20.84,30.64,54.14,2.9,31.05-9.53,46.25,16.99,75.53,29.84,22.66,83.02,18.79,76.88,69.63-6.14,50.84-73.56,44.21-89.59,18.79-16.03-25.42-14.22-48.08-23.14-64.1-8.91-16.03-24.39-6.63-32.12-24.31-9.07-16.64,6.68-53.95,9.51-60.37-1.9-6.26-4.35-13.12-14.49-15.89-21.75-5.93-39.79-26.52-39.79-33.16s19.89-24.87,43.1-24.87Z"></path><path class="cls-40" d="m2878.19,1838.83c-2.25,5.01-.68,10.59,3.5,12.47,4.18,1.87,9.39-.67,11.63-5.69,2.25-5.01.68-10.59-3.49-12.47-4.18-1.87-9.39.67-11.63,5.69Z"></path><path class="cls-110" d="m1476.62,2177.8c2.46,7.01-5.99,19.63-21.55,27.17-14.34,6.96-27.23,3.26-30.16-3.64-6.54-15.42,47.9-34.37,51.7-23.53Z"></path><rect class="cls-103" x="1518.08" y="1888.81" width="8.23" height="28.92" rx=".85" ry=".85" transform="translate(242.81 -171.02) rotate(6.99)"></rect><rect class="cls-2" x="1449.59" y="1898.45" width="8.23" height="28.92" rx=".85" ry=".85" transform="translate(-632.16 720.58) rotate(-23.01)"></rect><rect class="cls-67" x="1395.1" y="1941.04" width="8.23" height="28.92" rx=".85" ry=".85" transform="translate(-1004.6 1896.72) rotate(-53.01)"></rect><rect class="cls-59" x="1369.2" y="2005.18" width="8.23" height="28.92" rx=".85" ry=".85" transform="translate(-798.37 3137.1) rotate(-83.01)"></rect><rect class="cls-62" x="1378.84" y="2073.66" width="8.23" height="28.92" rx=".85" ry=".85" transform="translate(1.67 4177.36) rotate(-113.01)"></rect><rect class="cls-108" x="1608.55" y="2101.81" width="8.23" height="28.92" rx=".85" ry=".85" transform="translate(4273.33 2101.35) rotate(126.99)"></rect><rect class="cls-31" x="1634.45" y="2037.68" width="8.23" height="28.92" rx=".85" ry=".85" transform="translate(3874.78 675.37) rotate(96.99)"></rect><rect class="cls-26" x="1624.8" y="1969.19" width="8.23" height="28.92" rx=".85" ry=".85" transform="translate(2817.93 -291.11) rotate(66.99)"></rect><rect class="cls-74" x="1582.21" y="1914.7" width="8.23" height="28.92" rx=".85" ry=".85" transform="translate(1479.86 -566.19) rotate(36.99)"></rect><path class="cls-92" d="m1517.16,1942.34c-44.27-5.3-85.35,26.11-91.79,70.23-2.44,16.68.26,32.87,6.88,47.01,13.34,28.52,17.74,60.43,13.47,91.65l90.8,11.13.39-3.2c3.7-30.17,15.59-58.82,34.76-82.4,9.49-11.67,15.91-26.06,17.88-42.1,5.57-45.49-26.85-86.87-72.38-92.32Z"></path><path class="cls-30" d="m1445.73,2151.24l-3.94,32.12c-.53,4.35,2.56,8.3,6.91,8.84l7.43.91-.64,5.23c-1.17,9.58,5.64,18.3,15.23,19.48l25.47,3.12c9.58,1.17,18.3-5.64,19.48-15.23l.64-5.23,7.43.91c4.35.53,8.3-2.56,8.84-6.91l3.94-32.12-90.78-11.13Z"></path><path class="cls-65" d="m1472.07,2155.32c.12.01.24.02.36.02,1.25-.05,2.24-1.1,2.19-2.36l-4.07-110.68,19.66,16.14c.95.78,2.34.67,3.15-.25l11.44-12.98,7.97,15.36c.56,1.09,1.89,1.53,3,1.01l22.97-10.92-30.68,106.42c-.35,1.21.35,2.47,1.56,2.82,1.2.35,2.47-.35,2.82-1.56l32.08-111.28c.25-.86-.03-1.79-.71-2.37-.68-.58-1.64-.7-2.45-.32l-25.55,12.14-8.48-16.36c-.69-1.33-2.73-1.58-3.73-.46l-12.18,13.82-21.86-17.95c-.69-.57-1.65-.68-2.45-.28-.8.4-1.3,1.23-1.26,2.12l4.26,115.73c.04,1.13.91,2.04,1.99,2.17Z"></path><polygon class="cls-110" points="1226.9 2086.87 1184.6 2086.87 1184.6 2005.95 1210.45 2005.95 1226.9 2086.87"></polygon><path class="cls-40" d="m1258.14,1964.99c7.15,33.22,1.87,66.71-18.19,73.97-18.81,6.81-51.45-11.21-66.38-44.05-15.72-34.57-8.05-60.41,19.8-70.03,29.58-10.22,56.93,3.69,64.77,40.1Z"></path><path class="cls-93" d="m1199.14,1913.14c-30.76,2.41-47.77,30.29-45.8,57.86,1.84,25.75,29.37,39.5,29.37,39.5,0,0,9.08-26.14,23.97-30.3,20.76-5.81,11.79-24.37,21.49-26.37,10.11-2.09,32.09-10.11,31.73-24.83-14.23.5-26.2-18.56-60.75-15.86Z"></path><path class="cls-40" d="m1202.19,1985.64c2.49,5.56.76,11.75-3.88,13.83s-10.41-.75-12.9-6.31-.76-11.75,3.88-13.83c4.63-2.08,10.41.75,12.9,6.31Z"></path><path class="cls-93" d="m1199.14,1979.69s2.32,35.9,9.17,49.54c5.97,11.88,32.03,24.14,46.23-4.04,0,0-14.37,3-12.74-3.08,1.92-7.16,16.7-7.24,16.7-7.24,0,0,2.89-.14,3.41-2.8.77-3.95-1.16-10.35-1.16-10.35,0,0-19.57,6.98-28,6.98-9.56,0-18.24-6.74-26.32-29h-7.3Z"></path><path class="cls-110" d="m1322.69,2771.2l-38.88-217.48-26.41-107.17-26.59-107.38-9.04-36.51-76.26,24.32,13.79,34.99,40.18,101.94c13.36,34.03,26.93,68.05,40.15,102.21l65.32,209.4,2.72,8.73,16.63-4.06-1.61-9.01Z"></path><path class="cls-110" d="m1182.19,2303.56l-3.04,37.48-17.21,212.36-160.58,75.26-8.29,3.89,6.06,15.82,8.76-2.65,184.13-55.66c6.8-2.07,12.32-7.68,13.9-15.12l.65-3.06,46.83-219.97,7.83-36.78-79.06-11.57Z"></path><polygon class="cls-12" points="1134.32 2280.38 1276.88 2308.07 1321.44 2734.13 1273.63 2740.69 1134.32 2280.38"></polygon><path class="cls-19" d="m1127.34,2308.8l143.82-20.09s-22.05,266.74-65.08,300.76c-23.93,18.92-156.95,50.78-156.95,50.78l-14.32-40.84s100.13-40.53,108.51-53.07c9.11-13.63-15.99-237.54-15.99-237.54Z"></path><path class="cls-110" d="m1229.84,2101.72l94.27,134.72-17.15-4.79,111.18-42.2,10.1-3.83,8.02,19.33-9.84,4.44-108.4,48.9c-5.98,2.7-12.85.81-16.68-4.18l-.47-.61-100.24-130.33-11.05-14.37,29.88-21.92,10.39,14.85Z"></path><path class="cls-58" d="m1180.72,2128.82c13.86,36.31,79.18,116.94,129.66,131.59,29.97,8.7,94.95-36.89,94.95-36.89l-9.46-29.26s-49.26,32.72-75.74,7.58c-26.48-25.14-73.4-105.65-97.29-110.1-21.06-3.93-48.34,20.77-42.11,37.08Z"></path><path class="cls-101" d="m1187.49,2069.77s22.19,19.46,44.38,6.49c0,0,7.59,81.06,17.52,114.14,9.93,33.07,38.55,118.26,38.55,118.26l-160.75,1.72c-4.31-74.01,23.65-158.07,60.3-240.6Z"></path><path class="cls-33" d="m1179.82,2063.12s-77.1,115.31-61.4,238.31c0,0-6.62,24.16,80.86,20.87,87.49-3.29,92.49-15.38,92.49-15.38-27.7-66.01-49.21-140.72-59.9-230.67,0,0-32.71,1.2-52.06-13.14Z"></path><path class="cls-40" d="m1204.93,2120.26c-10.97,18.96-21.62,38.75-31.4,58.52-4.88,9.91-9.56,19.89-13.84,29.91-4.25,10-8.17,20.11-10.96,29.9-.69,2.45-1.26,4.79-1.76,7.18l-1.49,7.91c-.89,5.37-1.74,10.77-2.48,16.24-1.49,10.94-2.73,22.01-3.85,33.12-2.16,22.21-3.88,44.66-5.17,66.95l-.62,10.78-20.97-.53v-10.8c.03-22.79.46-45.4,1.37-68.18.49-11.39,1.11-22.79,2.01-34.28.44-5.74,1.02-11.52,1.64-17.33l1.14-8.8c.49-3.16,1.1-6.34,1.78-9.36,2.78-12.08,6.51-23.23,10.51-34.21,4.02-10.95,8.39-21.64,12.93-32.22,9.16-21.17,18.85-41.66,29.41-62.32l8.26-16.14,32.55,17.97-9.08,15.69Z"></path><path class="cls-36" d="m1166.88,2083.39c-27.81,27.15-43.81,88.79-55.64,140-11.83,51.21-2.22,128.97-2.22,128.97l31.88,1.41s1.82-79.14,14.37-113.43c12.55-34.29,67.77-109.34,62.37-133.04-4.76-20.88-38.27-36.1-50.76-23.91Z"></path><path class="cls-40" d="m1122.58,2443.7c-7.4-.58-15.45-16.76-15.95-38.8-.46-20.32,8.2-33.66,15.71-33.69,16.76-.07,11.69,73.39.24,72.5Z"></path><path class="cls-40" d="m1139.03,2412.79c3.1-1.02,4.57-9.84,2.09-20.81-2.29-10.12-7.64-15.88-10.86-15.15-7.19,1.62,3.97,37.54,8.77,35.96Z"></path><path class="cls-93" d="m1386.38,2795.06s-11-2.9-14.04-4c-12.16-4.37-43.64-17.27-43.64-17.27,0,0-3.88,6.25-13.6,7.47-7.16.89-12.43-1.69-12.64-1.7-3.11-.09-5.79,4.92-5.97,11.19-.06,2.06.16,4,.58,5.68l-.26,8.72,92.79,2.79.27-8.83c.06-2.05-1.45-3.8-3.48-4.05Z"></path><path class="cls-93" d="m1004.98,2713.17s-.43-11.37-.27-14.6c.64-12.9,3.8-46.77,3.8-46.77,0,0-7.11-1.89-11.11-10.83-2.94-6.59-2.01-12.38-2.06-12.59-.82-3-6.39-4.1-12.45-2.45-1.99.54-3.78,1.31-5.26,2.21l-8.41,2.29,24.38,89.57,8.52-2.32c1.98-.54,3.21-2.5,2.86-4.51Z"></path><path class="cls-110" d="m1456.45,2169.48c-2.17-2.44-10.84-.28-19.93,6.36-8.38,6.12-11.53,13.32-9.59,15.98,4.35,5.96,32.87-18.56,29.51-22.34Z"></path></g></svg>